<?xml version="1.0" encoding="UTF-8"?>
<!DOCTYPE svg PUBLIC "-//W3C//DTD SVG 1.1//EN" "http://www.w3.org/Graphics/SVG/1.1/DTD/svg11.dtd">
<svg xmlns="http://www.w3.org/2000/svg" version="1.1" width="479px" height="427px" style="shape-rendering:geometricPrecision; text-rendering:geometricPrecision; image-rendering:optimizeQuality; fill-rule:evenodd; clip-rule:evenodd" xmlns:xlink="http://www.w3.org/1999/xlink">
<g><path style="opacity:1" fill="#0b0619" d="M -0.5,-0.5 C 159.167,-0.5 318.833,-0.5 478.5,-0.5C 478.5,141.833 478.5,284.167 478.5,426.5C 318.833,426.5 159.167,426.5 -0.5,426.5C -0.5,284.167 -0.5,141.833 -0.5,-0.5 Z"/></g>
<g><path style="opacity:1" fill="#f5c4bb" d="M 254.5,76.5 C 256.936,77.871 259.603,78.871 262.5,79.5C 265.582,81.0748 268.249,83.2415 270.5,86C 271.448,86.4828 272.448,86.6495 273.5,86.5C 275.786,86.405 277.786,85.7384 279.5,84.5C 285.833,83.1667 292.167,83.1667 298.5,84.5C 301.212,85.3586 303.878,86.5252 306.5,88C 305.371,90.1678 303.871,90.6678 302,89.5C 300.829,91.6157 299.329,92.2824 297.5,91.5C 296.295,93.1376 294.962,93.4709 293.5,92.5C 290.491,93.0077 287.491,94.0077 284.5,95.5C 280.518,94.5077 276.518,93.5077 272.5,92.5C 271.833,92.6667 271.167,92.8333 270.5,93C 271.381,93.7083 272.047,94.5416 272.5,95.5C 272.414,96.4959 272.748,97.3292 273.5,98C 271.91,99.0458 270.41,100.213 269,101.5C 267.32,100.397 265.82,100.73 264.5,102.5C 262.939,101.653 261.439,101.986 260,103.5C 259.667,103.167 259.333,102.833 259,102.5C 257.103,104.016 254.936,104.683 252.5,104.5C 237.138,99.572 221.471,98.4053 205.5,101C 198.178,102.658 191.511,105.658 185.5,110C 198.508,110.397 211.508,110.897 224.5,111.5C 224.5,112.167 224.833,112.5 225.5,112.5C 222.85,113.606 220.017,115.273 217,117.5C 215,117.5 213,117.5 211,117.5C 208.036,118.27 204.87,119.436 201.5,121C 202.598,121.77 202.598,122.603 201.5,123.5C 198.763,123.401 196.096,123.735 193.5,124.5C 186.923,125.137 180.923,127.137 175.5,130.5C 151.205,140.127 132.872,156.46 120.5,179.5C 120.38,178.414 119.713,177.747 118.5,177.5C 116.367,178.301 114.367,178.634 112.5,178.5C 120.767,150.41 137.433,128.91 162.5,114C 166.347,112.384 170.347,111.384 174.5,111C 187.219,94.6456 203.552,83.8122 223.5,78.5C 226.228,78.8294 228.562,78.1628 230.5,76.5C 238.5,75.1667 246.5,75.1667 254.5,76.5 Z"/></g>
<g><path style="opacity:1" fill="#634f58" d="M 254.5,76.5 C 257.716,76.3455 260.383,77.3455 262.5,79.5C 259.603,78.871 256.936,77.871 254.5,76.5 Z"/></g>
<g><path style="opacity:1" fill="#957a7c" d="M 230.5,76.5 C 228.562,78.1628 226.228,78.8294 223.5,78.5C 225.515,77.0762 227.848,76.4095 230.5,76.5 Z"/></g>
<g><path style="opacity:1" fill="#9d7d7f" d="M 279.5,84.5 C 277.786,85.7384 275.786,86.405 273.5,86.5C 274.99,84.7202 276.99,84.0535 279.5,84.5 Z"/></g>
<g><path style="opacity:1" fill="#120e1d" d="M 284.5,95.5 C 290.851,98.9942 296.851,103.161 302.5,108C 306.75,113.402 310.75,118.902 314.5,124.5C 317.109,131.662 319.109,138.995 320.5,146.5C 320.666,154.507 320.5,162.507 320,170.5C 319.768,171.737 319.268,172.737 318.5,173.5C 312.931,159.686 306.765,146.02 300,132.5C 298.264,130.937 296.764,129.27 295.5,127.5C 293.28,122.728 290.78,118.062 288,113.5C 284,108.167 280,102.833 276,97.5C 274.887,96.695 273.721,96.0283 272.5,95.5C 272.047,94.5416 271.381,93.7083 270.5,93C 271.167,92.8333 271.833,92.6667 272.5,92.5C 276.518,93.5077 280.518,94.5077 284.5,95.5 Z"/></g>
<g><path style="opacity:1" fill="#15111f" d="M 252.5,104.5 C 255.873,107.19 259.54,109.523 263.5,111.5C 265.294,113.797 267.294,115.963 269.5,118C 268.552,118.483 267.552,118.649 266.5,118.5C 256.606,116.277 246.606,114.61 236.5,113.5C 236.389,112.883 236.056,112.383 235.5,112C 231.848,111.501 228.182,111.335 224.5,111.5C 211.508,110.897 198.508,110.397 185.5,110C 191.511,105.658 198.178,102.658 205.5,101C 221.471,98.4053 237.138,99.572 252.5,104.5 Z"/></g>
<g><path style="opacity:1" fill="#f5bfb7" d="M 298.5,84.5 C 316.913,87.9336 330.913,97.6003 340.5,113.5C 340.5,114.167 340.5,114.833 340.5,115.5C 337.684,115.496 335.184,116.829 333,119.5C 332.311,118.643 331.478,117.977 330.5,117.5C 328.167,118.833 325.833,120.167 323.5,121.5C 321.259,120.36 319.092,120.36 317,121.5C 316.623,122.942 315.79,123.942 314.5,124.5C 310.75,118.902 306.75,113.402 302.5,108C 296.851,103.161 290.851,98.9942 284.5,95.5C 287.491,94.0077 290.491,93.0077 293.5,92.5C 294.962,93.4709 296.295,93.1376 297.5,91.5C 299.329,92.2824 300.829,91.6157 302,89.5C 303.871,90.6678 305.371,90.1678 306.5,88C 303.878,86.5252 301.212,85.3586 298.5,84.5 Z"/></g>
<g><path style="opacity:1" fill="#513f4a" d="M 224.5,111.5 C 228.182,111.335 231.848,111.501 235.5,112C 236.056,112.383 236.389,112.883 236.5,113.5C 232.846,113.058 229.179,112.724 225.5,112.5C 224.833,112.5 224.5,112.167 224.5,111.5 Z"/></g>
<g><path style="opacity:1" fill="#ab8586" d="M 263.5,111.5 C 267.08,113.408 270.08,116.074 272.5,119.5C 270.308,120.439 268.308,120.105 266.5,118.5C 267.552,118.649 268.552,118.483 269.5,118C 267.294,115.963 265.294,113.797 263.5,111.5 Z"/></g>
<g><path style="opacity:1" fill="#f5c0b8" d="M 272.5,95.5 C 273.721,96.0283 274.887,96.695 276,97.5C 280,102.833 284,108.167 288,113.5C 290.78,118.062 293.28,122.728 295.5,127.5C 294.992,129.233 294.159,129.566 293,128.5C 291.108,129.13 289.441,130.13 288,131.5C 285.336,130.237 283.503,130.904 282.5,133.5C 280.265,133.205 278.265,133.539 276.5,134.5C 266.494,134.666 256.494,134.5 246.5,134C 244.414,133.685 242.414,133.185 240.5,132.5C 235.809,130.409 230.809,129.076 225.5,128.5C 221.405,127.185 217.405,126.019 213.5,125C 196.003,144.342 175.337,159.175 151.5,169.5C 149.494,170.166 147.66,170.166 146,169.5C 142.327,171.681 138.66,173.015 135,173.5C 134.329,172.748 133.496,172.414 132.5,172.5C 153.918,153.956 176.918,137.623 201.5,123.5C 202.598,122.603 202.598,121.77 201.5,121C 204.87,119.436 208.036,118.27 211,117.5C 213,117.5 215,117.5 217,117.5C 220.017,115.273 222.85,113.606 225.5,112.5C 229.179,112.724 232.846,113.058 236.5,113.5C 246.606,114.61 256.606,116.277 266.5,118.5C 268.308,120.105 270.308,120.439 272.5,119.5C 270.08,116.074 267.08,113.408 263.5,111.5C 259.54,109.523 255.873,107.19 252.5,104.5C 254.936,104.683 257.103,104.016 259,102.5C 259.333,102.833 259.667,103.167 260,103.5C 261.439,101.986 262.939,101.653 264.5,102.5C 265.82,100.73 267.32,100.397 269,101.5C 270.41,100.213 271.91,99.0458 273.5,98C 272.748,97.3292 272.414,96.4959 272.5,95.5 Z"/></g>
<g><path style="opacity:1" fill="#f5b8b2" d="M 340.5,115.5 C 341.143,117.076 342.143,118.41 343.5,119.5C 344.5,122.167 345.5,124.833 346.5,127.5C 346.712,133.037 346.378,138.537 345.5,144C 345.617,146.616 346.95,148.116 349.5,148.5C 353.997,152.331 357.331,156.998 359.5,162.5C 360.265,165.096 360.599,167.763 360.5,170.5C 360.159,222.357 359.159,222.357 357.5,170.5C 356.508,168.974 355.008,168.307 353,168.5C 351.615,168.514 350.449,168.848 349.5,169.5C 348.833,169.5 348.167,169.5 347.5,169.5C 346.414,169.38 345.747,168.713 345.5,167.5C 345.071,164.971 344.404,162.638 343.5,160.5C 343.604,156.973 342.437,153.973 340,151.5C 339.566,157.246 338.733,162.913 337.5,168.5C 336.91,172.316 334.577,173.983 330.5,173.5C 327.57,174.299 324.57,174.632 321.5,174.5C 321.827,164.985 321.494,155.652 320.5,146.5C 319.109,138.995 317.109,131.662 314.5,124.5C 315.79,123.942 316.623,122.942 317,121.5C 319.092,120.36 321.259,120.36 323.5,121.5C 325.833,120.167 328.167,118.833 330.5,117.5C 331.478,117.977 332.311,118.643 333,119.5C 335.184,116.829 337.684,115.496 340.5,115.5 Z"/></g>
<g><path style="opacity:1" fill="#89686e" d="M 340.5,113.5 C 342.245,115.033 343.245,117.033 343.5,119.5C 342.143,118.41 341.143,117.076 340.5,115.5C 340.5,114.833 340.5,114.167 340.5,113.5 Z"/></g>
<g><path style="opacity:1" fill="#140f1e" d="M 201.5,123.5 C 176.918,137.623 153.918,153.956 132.5,172.5C 127.594,175.898 123.094,179.898 119,184.5C 119.134,182.811 119.634,181.144 120.5,179.5C 132.872,156.46 151.205,140.127 175.5,130.5C 181.659,128.669 187.659,126.669 193.5,124.5C 196.096,123.735 198.763,123.401 201.5,123.5 Z"/></g>
<g><path style="opacity:1" fill="#5a4650" d="M 193.5,124.5 C 187.659,126.669 181.659,128.669 175.5,130.5C 180.923,127.137 186.923,125.137 193.5,124.5 Z"/></g>
<g><path style="opacity:1" fill="#9f7b7e" d="M 225.5,128.5 C 230.809,129.076 235.809,130.409 240.5,132.5C 235.194,131.947 230.194,130.614 225.5,128.5 Z"/></g>
<g><path style="opacity:1" fill="#f4b7b2" d="M 295.5,127.5 C 296.764,129.27 298.264,130.937 300,132.5C 306.765,146.02 312.931,159.686 318.5,173.5C 317.375,175 316.041,176.333 314.5,177.5C 310.695,178.984 306.695,179.984 302.5,180.5C 297.604,175.376 294.271,169.376 292.5,162.5C 291.733,158.851 290.4,155.518 288.5,152.5C 286.913,146.897 285.579,141.23 284.5,135.5C 284.5,134.167 283.833,133.5 282.5,133.5C 283.503,130.904 285.336,130.237 288,131.5C 289.441,130.13 291.108,129.13 293,128.5C 294.159,129.566 294.992,129.233 295.5,127.5 Z"/></g>
<g><path style="opacity:1" fill="#654d56" d="M 276.5,134.5 C 278.265,133.539 280.265,133.205 282.5,133.5C 283.833,133.5 284.5,134.167 284.5,135.5C 281.946,134.612 279.279,134.279 276.5,134.5 Z"/></g>
<g><path style="opacity:1" fill="#f3c4ba" d="M 428.5,133.5 C 428.528,138.862 428.194,144.195 427.5,149.5C 420.593,154.486 412.926,156.153 404.5,154.5C 403.884,151.89 403.551,149.223 403.5,146.5C 403.296,143.094 403.962,139.928 405.5,137C 412.436,133.432 419.77,131.765 427.5,132C 428.056,132.383 428.389,132.883 428.5,133.5 Z"/></g>
<g><path style="opacity:1" fill="#97787a" d="M 428.5,133.5 C 429.163,135.473 429.496,137.639 429.5,140C 429.672,143.477 429.006,146.644 427.5,149.5C 428.194,144.195 428.528,138.862 428.5,133.5 Z"/></g>
<g><path style="opacity:1" fill="#362736" d="M 346.5,127.5 C 347.328,133.653 347.828,139.987 348,146.5C 348.717,147.044 349.217,147.711 349.5,148.5C 346.95,148.116 345.617,146.616 345.5,144C 346.378,138.537 346.712,133.037 346.5,127.5 Z"/></g>
<g><path style="opacity:1" fill="#74565e" d="M 288.5,152.5 C 290.4,155.518 291.733,158.851 292.5,162.5C 290.103,159.691 288.77,156.358 288.5,152.5 Z"/></g>
<g><path style="opacity:1" fill="#b38889" d="M 424.5,158.5 C 423.848,159.725 422.681,160.392 421,160.5C 418.502,160.917 416.002,161.251 413.5,161.5C 416.854,159.742 420.521,158.742 424.5,158.5 Z"/></g>
<g><path style="opacity:1" fill="#372836" d="M 343.5,160.5 C 342.59,158.981 341.757,157.315 341,155.5C 340.519,159.531 339.853,163.531 339,167.5C 338.617,168.056 338.117,168.389 337.5,168.5C 338.733,162.913 339.566,157.246 340,151.5C 342.437,153.973 343.604,156.973 343.5,160.5 Z"/></g>
<g><path style="opacity:1" fill="#664b54" d="M 320.5,146.5 C 321.494,155.652 321.827,164.985 321.5,174.5C 324.57,174.632 327.57,174.299 330.5,173.5C 330.389,174.117 330.056,174.617 329.5,175C 324.36,175.179 319.36,176.012 314.5,177.5C 316.041,176.333 317.375,175 318.5,173.5C 319.268,172.737 319.768,171.737 320,170.5C 320.5,162.507 320.666,154.507 320.5,146.5 Z"/></g>
<g><path style="opacity:1" fill="#523b47" d="M 343.5,160.5 C 344.404,162.638 345.071,164.971 345.5,167.5C 345.747,168.713 346.414,169.38 347.5,169.5C 346.09,170.828 344.924,170.495 344,168.5C 343.503,165.854 343.336,163.187 343.5,160.5 Z"/></g>
<g><path style="opacity:1" fill="#8e676d" d="M 349.5,169.5 C 350.449,168.848 351.615,168.514 353,168.5C 355.008,168.307 356.508,168.974 357.5,170.5C 354.904,169.735 352.237,169.401 349.5,169.5 Z"/></g>
<g><path style="opacity:1" fill="#9a7074" d="M 359.5,162.5 C 361.141,163.871 362.141,165.704 362.5,168C 362.361,169.301 361.695,170.134 360.5,170.5C 360.599,167.763 360.265,165.096 359.5,162.5 Z"/></g>
<g><path style="opacity:1" fill="#f5b9b3" d="M 151.5,169.5 C 149.347,181.264 146.68,192.931 143.5,204.5C 138.799,204.293 134.965,205.96 132,209.5C 130.487,212.527 128.987,215.527 127.5,218.5C 126.527,216.052 126.194,213.385 126.5,210.5C 129.668,199.663 134.335,189.496 140.5,180C 140.167,179.833 139.833,179.667 139.5,179.5C 130.489,189.025 122.822,199.525 116.5,211C 110.048,212.438 103.715,213.938 97.5,215.5C 99.8384,207.16 104.005,199.826 110,193.5C 110.289,188.387 111.122,183.387 112.5,178.5C 114.367,178.634 116.367,178.301 118.5,177.5C 119.713,177.747 120.38,178.414 120.5,179.5C 119.634,181.144 119.134,182.811 119,184.5C 123.094,179.898 127.594,175.898 132.5,172.5C 133.496,172.414 134.329,172.748 135,173.5C 138.66,173.015 142.327,171.681 146,169.5C 147.66,170.166 149.494,170.166 151.5,169.5 Z"/></g>
<g><path style="opacity:1" fill="#fcb4b0" d="M 424.5,158.5 C 425.5,158.5 426.5,158.5 427.5,158.5C 427.5,167.833 427.5,177.167 427.5,186.5C 425.444,185.438 423.444,185.771 421.5,187.5C 419.102,187.899 416.602,187.899 414,187.5C 411.458,189.182 408.625,190.182 405.5,190.5C 405.5,181.5 405.5,172.5 405.5,163.5C 407.786,163.405 409.786,162.738 411.5,161.5C 412.167,161.5 412.833,161.5 413.5,161.5C 416.002,161.251 418.502,160.917 421,160.5C 422.681,160.392 423.848,159.725 424.5,158.5 Z"/></g>
<g><path style="opacity:1" fill="#48313f" d="M 329.5,180.5 C 329.171,195.343 329.504,210.01 330.5,224.5C 330.5,225.5 330.5,226.5 330.5,227.5C 330.5,227.833 330.5,228.167 330.5,228.5C 329.732,227.737 329.232,226.737 329,225.5C 328.172,210.328 328.339,195.328 329.5,180.5 Z"/></g>
<g><path style="opacity:1" fill="#6f525a" d="M 321.5,199.5 C 321.5,193.833 321.5,188.167 321.5,182.5C 319.784,182.629 318.117,182.962 316.5,183.5C 317.99,181.72 319.99,181.054 322.5,181.5C 322.823,187.69 322.49,193.69 321.5,199.5 Z"/></g>
<g><path style="opacity:1" fill="#f9b6b1" d="M 321.5,199.5 C 316.677,200.056 312.344,201.889 308.5,205C 306.798,207.235 305.798,209.735 305.5,212.5C 298.841,213.445 292.508,214.445 286.5,215.5C 286.5,207.5 286.5,199.5 286.5,191.5C 289.487,191.002 292.487,190.502 295.5,190C 296.056,189.617 296.389,189.117 296.5,188.5C 299.167,188.5 301.833,188.5 304.5,188.5C 304.192,190.924 304.526,193.257 305.5,195.5C 306.298,195.043 306.631,194.376 306.5,193.5C 308.167,188.5 311.5,185.167 316.5,183.5C 318.117,182.962 319.784,182.629 321.5,182.5C 321.5,188.167 321.5,193.833 321.5,199.5 Z"/></g>
<g><path style="opacity:1" fill="#fbb3af" d="M 389.5,196.5 C 388.732,195.737 388.232,194.737 388,193.5C 381.772,195.01 375.272,196.677 368.5,198.5C 368.334,189.494 368.5,180.494 369,171.5C 370.356,170.62 371.856,170.286 373.5,170.5C 378.923,170.476 384.257,169.81 389.5,168.5C 389.5,177.833 389.5,187.167 389.5,196.5 Z"/></g>
<g><path style="opacity:1" fill="#9a676e" d="M 424.5,158.5 C 425.568,157.566 426.901,157.232 428.5,157.5C 428.83,178.007 428.497,198.34 427.5,218.5C 427.5,207.833 427.5,197.167 427.5,186.5C 427.5,177.167 427.5,167.833 427.5,158.5C 426.5,158.5 425.5,158.5 424.5,158.5 Z"/></g>
<g><path style="opacity:1" fill="#b28687" d="M 306.5,193.5 C 306.631,194.376 306.298,195.043 305.5,195.5C 304.526,193.257 304.192,190.924 304.5,188.5C 301.833,188.5 299.167,188.5 296.5,188.5C 299.219,187.087 302.219,186.42 305.5,186.5C 305.198,189.059 305.532,191.393 306.5,193.5 Z"/></g>
<g><path style="opacity:1" fill="#fbb4b0" d="M 343.5,177.5 C 345.5,177.5 347.5,177.5 349.5,177.5C 349.5,185.833 349.5,194.167 349.5,202.5C 343.433,203.517 337.433,204.85 331.5,206.5C 330.335,198.187 330.168,189.853 331,181.5C 332.302,180.915 333.469,180.249 334.5,179.5C 337.402,178.422 340.402,177.756 343.5,177.5 Z"/></g>
<g><path style="opacity:1" fill="#d49193" d="M 411.5,161.5 C 409.786,162.738 407.786,163.405 405.5,163.5C 405.5,172.5 405.5,181.5 405.5,190.5C 405.5,201.167 405.5,211.833 405.5,222.5C 404.503,203.007 404.17,183.34 404.5,163.5C 406.515,162.076 408.848,161.41 411.5,161.5 Z"/></g>
<g><path style="opacity:1" fill="#342231" d="M 404.5,163.5 C 404.17,183.34 404.503,203.007 405.5,222.5C 406.5,222.5 407.5,222.5 408.5,222.5C 407.081,223.451 405.415,223.784 403.5,223.5C 403.17,203.326 403.503,183.326 404.5,163.5 Z"/></g>
<g><path style="opacity:1" fill="#fda4a5" d="M 427.5,186.5 C 427.5,197.167 427.5,207.833 427.5,218.5C 421.251,219.641 414.917,220.974 408.5,222.5C 407.5,222.5 406.5,222.5 405.5,222.5C 405.5,211.833 405.5,201.167 405.5,190.5C 408.625,190.182 411.458,189.182 414,187.5C 416.602,187.899 419.102,187.899 421.5,187.5C 423.444,185.771 425.444,185.438 427.5,186.5 Z"/></g>
<g><path style="opacity:1" fill="#63444f" d="M 347.5,176.5 C 348.568,175.566 349.901,175.232 351.5,175.5C 351.5,188.167 351.5,200.833 351.5,213.5C 350.505,201.345 350.171,189.011 350.5,176.5C 349.5,176.5 348.5,176.5 347.5,176.5 Z"/></g>
<g><path style="opacity:1" fill="#f6c1b9" d="M 206.5,207.5 C 199.003,207.925 191.503,209.592 184,212.5C 183.667,212.167 183.333,211.833 183,211.5C 179.842,213.833 176.842,214.5 174,213.5C 173.667,214.167 173.333,214.833 173,215.5C 170.132,215.58 167.299,215.58 164.5,215.5C 168.554,208.273 174.554,203.106 182.5,200C 190.308,197.471 198.308,196.305 206.5,196.5C 206.5,200.167 206.5,203.833 206.5,207.5 Z"/></g>
<g><path style="opacity:1" fill="#533946" d="M 285.5,191.5 C 285.17,209.674 285.503,227.674 286.5,245.5C 286.833,245.5 287.167,245.5 287.5,245.5C 286.791,246.404 285.791,246.737 284.5,246.5C 284.17,227.992 284.503,209.659 285.5,191.5 Z"/></g>
<g><path style="opacity:1" fill="#f7b6b1" d="M 270.5,194.5 C 272.436,198.715 273.103,203.381 272.5,208.5C 266.25,209.56 260.25,211.227 254.5,213.5C 254.5,208.167 254.5,202.833 254.5,197.5C 259.835,196.5 265.168,195.5 270.5,194.5 Z"/></g>
<g><path style="opacity:1" fill="#eea2a2" d="M 343.5,177.5 C 344.568,176.566 345.901,176.232 347.5,176.5C 348.5,176.5 349.5,176.5 350.5,176.5C 350.171,189.011 350.505,201.345 351.5,213.5C 351.5,214.167 351.5,214.833 351.5,215.5C 347.815,212.404 343.981,212.071 340,214.5C 338.372,213.903 336.705,214.237 335,215.5C 333.657,214.786 332.324,215.12 331,216.5C 330.503,219.146 330.336,221.813 330.5,224.5C 329.504,210.01 329.171,195.343 329.5,180.5C 331.042,179.699 332.708,179.366 334.5,179.5C 333.469,180.249 332.302,180.915 331,181.5C 330.168,189.853 330.335,198.187 331.5,206.5C 337.433,204.85 343.433,203.517 349.5,202.5C 349.5,194.167 349.5,185.833 349.5,177.5C 347.5,177.5 345.5,177.5 343.5,177.5 Z"/></g>
<g><path style="opacity:1" fill="#fca4a5" d="M 389.5,196.5 C 389.5,203.167 389.5,209.833 389.5,216.5C 386.956,216.048 384.456,216.715 382,218.5C 380.372,217.903 378.705,218.237 377,219.5C 374.564,218.903 371.897,218.903 369,219.5C 367.295,220.763 365.628,221.097 364,220.5C 363.667,221.167 363.333,221.833 363,222.5C 361.602,221.949 360.268,221.616 359,221.5C 358.667,222.167 358.333,222.833 358,223.5C 355.333,223.5 352.667,223.5 350,223.5C 348.667,224.167 347.333,224.833 346,225.5C 344,225.5 342,225.5 340,225.5C 339,226.167 338,226.833 337,227.5C 335.044,227.216 332.877,227.216 330.5,227.5C 330.5,226.5 330.5,225.5 330.5,224.5C 330.336,221.813 330.503,219.146 331,216.5C 332.324,215.12 333.657,214.786 335,215.5C 336.705,214.237 338.372,213.903 340,214.5C 343.981,212.071 347.815,212.404 351.5,215.5C 352.492,217.026 353.992,217.693 356,217.5C 367.002,215.956 371.169,209.622 368.5,198.5C 375.272,196.677 381.772,195.01 388,193.5C 388.232,194.737 388.732,195.737 389.5,196.5 Z"/></g>
<g><path style="opacity:1" fill="#a9787c" d="M 317.5,207.5 C 318.919,206.549 320.585,206.216 322.5,206.5C 322.817,210.702 322.483,214.702 321.5,218.5C 321.5,214.833 321.5,211.167 321.5,207.5C 320.167,207.5 318.833,207.5 317.5,207.5 Z"/></g>
<g><path style="opacity:1" fill="#f6b9b3" d="M 206.5,207.5 C 206.5,209.167 206.5,210.833 206.5,212.5C 199.673,212.124 193.006,212.957 186.5,215C 183.283,216.715 180.95,219.215 179.5,222.5C 178.076,224.515 177.41,226.848 177.5,229.5C 172.144,230.705 166.811,232.038 161.5,233.5C 160.534,231.604 160.201,229.604 160.5,227.5C 160.16,222.867 161.494,218.867 164.5,215.5C 167.299,215.58 170.132,215.58 173,215.5C 173.333,214.833 173.667,214.167 174,213.5C 176.842,214.5 179.842,213.833 183,211.5C 183.333,211.833 183.667,212.167 184,212.5C 191.503,209.592 199.003,207.925 206.5,207.5 Z"/></g>
<g><path style="opacity:1" fill="#fbb8b3" d="M 222.5,224.5 C 222.5,218.5 222.5,212.5 222.5,206.5C 224.698,206.88 226.365,206.213 227.5,204.5C 228.167,204.5 228.833,204.5 229.5,204.5C 232.482,204.037 235.482,203.704 238.5,203.5C 238.829,209.537 238.496,215.537 237.5,221.5C 232.124,223.457 227.124,224.457 222.5,224.5 Z"/></g>
<g><path style="opacity:1" fill="#f4aba9" d="M 317.5,207.5 C 318.833,207.5 320.167,207.5 321.5,207.5C 321.5,211.167 321.5,214.833 321.5,218.5C 318.587,224.569 316.253,230.902 314.5,237.5C 313.883,237.611 313.383,237.944 313,238.5C 312.5,229.173 312.334,219.839 312.5,210.5C 313.922,209.075 315.589,208.075 317.5,207.5 Z"/></g>
<g><path style="opacity:1" fill="#f1bdb5" d="M 146.5,222.5 C 144.58,221.721 142.747,221.387 141,221.5C 137.451,224.181 133.951,224.848 130.5,223.5C 131.837,219.327 133.837,215.494 136.5,212C 142.463,209.834 148.463,208.667 154.5,208.5C 151.821,213.194 149.155,217.861 146.5,222.5 Z"/></g>
<g><path style="opacity:1" fill="#cf8b8e" d="M 387.5,226.5 C 389.273,223.512 389.94,220.179 389.5,216.5C 389.5,209.833 389.5,203.167 389.5,196.5C 389.5,187.167 389.5,177.833 389.5,168.5C 384.257,169.81 378.923,170.476 373.5,170.5C 378.982,168.857 384.649,167.523 390.5,166.5C 390.5,186.5 390.5,206.5 390.5,226.5C 389.5,226.5 388.5,226.5 387.5,226.5 Z"/></g>
<g><path style="opacity:1" fill="#573d49" d="M 312.5,210.5 C 312.334,219.839 312.5,229.173 313,238.5C 313.383,237.944 313.883,237.611 314.5,237.5C 314.585,238.995 313.919,239.995 312.5,240.5C 311.177,230.341 311.177,220.341 312.5,210.5 Z"/></g>
<g><path style="opacity:1" fill="#76565e" d="M 126.5,210.5 C 126.194,213.385 126.527,216.052 127.5,218.5C 127.631,219.376 127.298,220.043 126.5,220.5C 125.194,217.02 125.194,213.687 126.5,210.5 Z"/></g>
<g><path style="opacity:1" fill="#f99a9d" d="M 389.5,216.5 C 389.94,220.179 389.273,223.512 387.5,226.5C 381.469,227.314 375.469,228.314 369.5,229.5C 369.769,227.571 369.269,225.905 368,224.5C 358.502,233.665 347.336,236.832 334.5,234C 332.531,232.5 331.198,230.667 330.5,228.5C 330.5,228.167 330.5,227.833 330.5,227.5C 332.877,227.216 335.044,227.216 337,227.5C 338,226.833 339,226.167 340,225.5C 342,225.5 344,225.5 346,225.5C 347.333,224.833 348.667,224.167 350,223.5C 352.667,223.5 355.333,223.5 358,223.5C 358.333,222.833 358.667,222.167 359,221.5C 360.268,221.616 361.602,221.949 363,222.5C 363.333,221.833 363.667,221.167 364,220.5C 365.628,221.097 367.295,220.763 369,219.5C 371.897,218.903 374.564,218.903 377,219.5C 378.705,218.237 380.372,217.903 382,218.5C 384.456,216.715 386.956,216.048 389.5,216.5 Z"/></g>
<g><path style="opacity:1" fill="#5d4751" d="M 117.5,216.5 C 118.568,215.566 119.901,215.232 121.5,215.5C 121.5,222.833 121.5,230.167 121.5,237.5C 120.509,230.687 120.175,223.687 120.5,216.5C 119.5,216.5 118.5,216.5 117.5,216.5 Z"/></g>
<g><path style="opacity:1" fill="#664651" d="M 236.5,202.5 C 237.568,201.566 238.901,201.232 240.5,201.5C 240.5,213.833 240.5,226.167 240.5,238.5C 239.505,226.678 239.172,214.678 239.5,202.5C 238.5,202.5 237.5,202.5 236.5,202.5 Z"/></g>
<g><path style="opacity:1" fill="#a67679" d="M 227.5,204.5 C 226.365,206.213 224.698,206.88 222.5,206.5C 222.5,212.5 222.5,218.5 222.5,224.5C 222.5,231.5 222.5,238.5 222.5,245.5C 221.175,232.327 221.175,218.994 222.5,205.5C 224.071,204.691 225.738,204.357 227.5,204.5 Z"/></g>
<g><path style="opacity:1" fill="#d28f92" d="M 296.5,188.5 C 296.389,189.117 296.056,189.617 295.5,190C 292.487,190.502 289.487,191.002 286.5,191.5C 286.5,199.5 286.5,207.5 286.5,215.5C 286.5,225.5 286.5,235.5 286.5,245.5C 285.503,227.674 285.17,209.674 285.5,191.5C 288.809,189.63 292.475,188.63 296.5,188.5 Z"/></g>
<g><path style="opacity:1" fill="#8b646b" d="M 201.5,221.5 C 199.485,222.924 197.152,223.59 194.5,223.5C 196.515,222.076 198.848,221.41 201.5,221.5 Z"/></g>
<g><path style="opacity:1" fill="#875b63" d="M 270.5,194.5 C 271.209,193.596 272.209,193.263 273.5,193.5C 273.83,212.008 273.497,230.341 272.5,248.5C 272.5,245.5 272.5,242.5 272.5,239.5C 272.5,229.167 272.5,218.833 272.5,208.5C 273.103,203.381 272.436,198.715 270.5,194.5 Z"/></g>
<g><path style="opacity:1" fill="#7b535d" d="M 206.5,220.5 C 207.919,219.549 209.585,219.216 211.5,219.5C 211.829,232.677 211.495,245.677 210.5,258.5C 210.5,255.5 210.5,252.5 210.5,249.5C 210.5,246.5 210.5,243.5 210.5,240.5C 210.5,233.833 210.5,227.167 210.5,220.5C 209.167,220.5 207.833,220.5 206.5,220.5 Z"/></g>
<g><path style="opacity:1" fill="#fca7a7" d="M 236.5,202.5 C 237.5,202.5 238.5,202.5 239.5,202.5C 239.172,214.678 239.505,226.678 240.5,238.5C 241.334,239.748 242.667,240.415 244.5,240.5C 246.923,240.406 249.256,239.906 251.5,239C 252.252,238.329 252.586,237.496 252.5,236.5C 252.783,235.711 253.283,235.044 254,234.5C 254.5,227.508 254.666,220.508 254.5,213.5C 260.25,211.227 266.25,209.56 272.5,208.5C 272.5,218.833 272.5,229.167 272.5,239.5C 257.823,242.53 241.49,245.864 223.5,249.5C 222.766,248.292 222.433,246.959 222.5,245.5C 222.5,238.5 222.5,231.5 222.5,224.5C 227.124,224.457 232.124,223.457 237.5,221.5C 238.496,215.537 238.829,209.537 238.5,203.5C 235.482,203.704 232.482,204.037 229.5,204.5C 231.515,203.076 233.848,202.41 236.5,202.5 Z"/></g>
<g><path style="opacity:1" fill="#7a5e64" d="M 64.5,229.5 C 65.9187,228.549 67.5853,228.216 69.5,228.5C 69.5,235.5 69.5,242.5 69.5,249.5C 68.596,248.791 68.2627,247.791 68.5,246.5C 68.5,240.833 68.5,235.167 68.5,229.5C 67.1667,229.5 65.8333,229.5 64.5,229.5 Z"/></g>
<g><path style="opacity:1" fill="#f7b8b2" d="M 117.5,216.5 C 118.5,216.5 119.5,216.5 120.5,216.5C 120.175,223.687 120.509,230.687 121.5,237.5C 122.458,237.047 123.292,236.381 124,235.5C 125.925,231.313 128.092,227.313 130.5,223.5C 133.951,224.848 137.451,224.181 141,221.5C 142.747,221.387 144.58,221.721 146.5,222.5C 143.404,228.367 140.071,234.033 136.5,239.5C 127.07,240.753 117.737,242.586 108.5,245C 106.679,247.456 106.012,250.289 106.5,253.5C 106.167,253.5 105.833,253.5 105.5,253.5C 105.5,242.167 105.5,230.833 105.5,219.5C 109.239,217.898 113.239,216.898 117.5,216.5 Z"/></g>
<g><path style="opacity:1" fill="#94676d" d="M 179.5,222.5 C 178.167,230.5 178.167,238.5 179.5,246.5C 178.732,245.737 178.232,244.737 178,243.5C 177.501,238.845 177.334,234.179 177.5,229.5C 177.41,226.848 178.076,224.515 179.5,222.5 Z"/></g>
<g><path style="opacity:1" fill="#faadab" d="M 206.5,220.5 C 207.833,220.5 209.167,220.5 210.5,220.5C 210.5,227.167 210.5,233.833 210.5,240.5C 205.631,241.966 200.631,242.966 195.5,243.5C 195.768,241.901 195.434,240.568 194.5,239.5C 191.482,239.704 188.482,240.037 185.5,240.5C 185.5,235.167 185.5,229.833 185.5,224.5C 188.455,223.841 191.455,223.508 194.5,223.5C 197.152,223.59 199.485,222.924 201.5,221.5C 203.292,221.634 204.958,221.301 206.5,220.5 Z"/></g>
<g><path style="opacity:1" fill="#f89ea0" d="M 305.5,212.5 C 305.5,222.5 305.5,232.5 305.5,242.5C 299.455,243.242 293.455,244.242 287.5,245.5C 287.167,245.5 286.833,245.5 286.5,245.5C 286.5,235.5 286.5,225.5 286.5,215.5C 292.508,214.445 298.841,213.445 305.5,212.5 Z"/></g>
<g><path style="opacity:1" fill="#f3bbb4" d="M 87.5,243.5 C 87.2172,242.711 86.7172,242.044 86,241.5C 81.8478,243.743 77.6812,244.743 73.5,244.5C 76.1261,237.914 79.2928,231.581 83,225.5C 88.2333,222.646 93.7333,221.646 99.5,222.5C 95.7119,229.758 91.7119,236.758 87.5,243.5 Z"/></g>
<g><path style="opacity:1" fill="#b17279" d="M 252.5,236.5 C 252.586,237.496 252.252,238.329 251.5,239C 249.256,239.906 246.923,240.406 244.5,240.5C 242.667,240.415 241.334,239.748 240.5,238.5C 244.851,239.997 248.851,239.33 252.5,236.5 Z"/></g>
<g><path style="opacity:1" fill="#f8bfb8" d="M 64.5,229.5 C 65.8333,229.5 67.1667,229.5 68.5,229.5C 68.5,235.167 68.5,240.833 68.5,246.5C 65.0437,246.695 61.5437,247.695 58,249.5C 57.3292,248.748 56.4959,248.414 55.5,248.5C 55.2143,242.741 55.5476,237.075 56.5,231.5C 58.9052,230.232 61.5718,229.565 64.5,229.5 Z"/></g>
<g><path style="opacity:1" fill="#f99a9d" d="M 272.5,239.5 C 272.5,242.5 272.5,245.5 272.5,248.5C 266.762,249.114 261.095,250.114 255.5,251.5C 255.688,249.897 255.188,248.563 254,247.5C 246.163,254.802 236.996,257.302 226.5,255C 224.84,253.512 223.84,251.679 223.5,249.5C 241.49,245.864 257.823,242.53 272.5,239.5 Z"/></g>
<g><path style="opacity:1" fill="#f9a5a5" d="M 160.5,227.5 C 160.201,229.604 160.534,231.604 161.5,233.5C 166.811,232.038 172.144,230.705 177.5,229.5C 177.334,234.179 177.501,238.845 178,243.5C 178.232,244.737 178.732,245.737 179.5,246.5C 180.267,247.172 180.934,248.005 181.5,249C 185.859,249.534 190.192,249.368 194.5,248.5C 194.5,245.5 194.5,242.5 194.5,239.5C 195.434,240.568 195.768,241.901 195.5,243.5C 200.631,242.966 205.631,241.966 210.5,240.5C 210.5,243.5 210.5,246.5 210.5,249.5C 199.85,251.529 189.017,253.862 178,256.5C 176.853,255.542 175.853,255.875 175,257.5C 172.266,257.367 169.599,257.367 167,257.5C 165.812,258.563 165.312,259.897 165.5,261.5C 162.809,257.278 160.976,252.612 160,247.5C 159.179,240.654 159.346,233.987 160.5,227.5 Z"/></g>
<g><path style="opacity:1" fill="#f6a6a5" d="M 336.5,272.5 C 335.833,273.5 335.167,274.5 334.5,275.5C 334.631,274.624 334.298,273.957 333.5,273.5C 332.575,274.641 331.741,274.641 331,273.5C 329.295,275.977 327.295,277.311 325,277.5C 324.955,274.78 325.455,272.114 326.5,269.5C 326.483,267.972 325.816,267.472 324.5,268C 319.485,273.162 313.818,277.329 307.5,280.5C 307.607,278.621 307.107,278.288 306,279.5C 305.333,278.833 304.667,278.167 304,277.5C 301.75,278.708 299.583,280.041 297.5,281.5C 296.522,281.023 295.689,280.357 295,279.5C 293.981,280.687 292.814,281.687 291.5,282.5C 290.28,281.289 289.113,281.289 288,282.5C 286.771,280.053 285.271,279.887 283.5,282C 284.654,282.914 284.487,283.747 283,284.5C 281.719,284.619 280.552,284.119 279.5,283C 280.381,282.292 281.047,281.458 281.5,280.5C 282.469,279.691 283.302,278.691 284,277.5C 285.06,270.934 286.56,264.601 288.5,258.5C 290.074,256.898 290.741,254.898 290.5,252.5C 295.566,251.887 300.566,250.887 305.5,249.5C 306.416,249.543 307.083,249.876 307.5,250.5C 306.368,254.76 304.701,258.76 302.5,262.5C 299.851,265.471 298.018,268.804 297,272.5C 299.372,270.297 301.539,267.963 303.5,265.5C 312.715,257.784 320.715,248.951 327.5,239C 331.361,241.087 335.695,242.254 340.5,242.5C 344.531,241.492 348.531,241.492 352.5,242.5C 348.555,247.948 344.055,252.948 339,257.5C 338.563,262.706 337.73,267.706 336.5,272.5 Z"/></g>
<g><path style="opacity:1" fill="#4e3543" d="M 105.5,219.5 C 105.5,230.833 105.5,242.167 105.5,253.5C 104.864,262.565 105.53,271.231 107.5,279.5C 106.791,280.404 105.791,280.737 104.5,280.5C 104.17,259.993 104.503,239.66 105.5,219.5 Z"/></g>
<g><path style="opacity:1" fill="#fcafac" d="M 136.5,239.5 C 137.011,242.022 138.011,244.355 139.5,246.5C 133.037,248.251 127.037,249.917 121.5,251.5C 120.523,254.287 120.19,257.287 120.5,260.5C 116.224,259.784 112.057,260.451 108,262.5C 106.608,259.722 106.108,256.722 106.5,253.5C 106.012,250.289 106.679,247.456 108.5,245C 117.737,242.586 127.07,240.753 136.5,239.5 Z"/></g>
<g><path style="opacity:1" fill="#f2adaa" d="M 99.5,231.5 C 100.66,243.66 100.827,255.993 100,268.5C 93.6361,261.373 91.3028,253.04 93,243.5C 95.4333,239.633 97.6,235.633 99.5,231.5 Z"/></g>
<g><path style="opacity:1" fill="#a16e74" d="M 307.5,250.5 C 307.083,249.876 306.416,249.543 305.5,249.5C 300.566,250.887 295.566,251.887 290.5,252.5C 290.611,251.883 290.944,251.383 291.5,251C 298.09,249.573 304.423,248.407 310.5,247.5C 309.812,248.855 308.812,249.855 307.5,250.5 Z"/></g>
<g><path style="opacity:1" fill="#fb9d9f" d="M 210.5,249.5 C 210.5,252.5 210.5,255.5 210.5,258.5C 204.346,260.957 198.013,262.957 191.5,264.5C 186.493,264.751 181.493,265.084 176.5,265.5C 172.158,265.722 168.491,264.389 165.5,261.5C 165.312,259.897 165.812,258.563 167,257.5C 169.599,257.367 172.266,257.367 175,257.5C 175.853,255.875 176.853,255.542 178,256.5C 189.017,253.862 199.85,251.529 210.5,249.5 Z"/></g>
<g><path style="opacity:1" fill="#92676d" d="M 56.5,231.5 C 55.5476,237.075 55.2143,242.741 55.5,248.5C 55.5,256.5 55.5,264.5 55.5,272.5C 55.5,278.167 55.5,283.833 55.5,289.5C 54.8335,280.006 54.5002,270.339 54.5,260.5C 54.5015,250.476 55.1682,240.809 56.5,231.5 Z"/></g>
<g><path style="opacity:1" fill="#f7a0a1" d="M 139.5,246.5 C 144.891,253.591 150.057,260.925 155,268.5C 155.591,269.483 155.257,270.15 154,270.5C 148.206,272.269 142.373,273.435 136.5,274C 132.03,266.889 127.696,259.722 123.5,252.5C 123.158,251.662 122.492,251.328 121.5,251.5C 127.037,249.917 133.037,248.251 139.5,246.5 Z"/></g>
<g><path style="opacity:1" fill="#faafac" d="M 87.5,243.5 C 86.4335,246.632 85.1001,249.632 83.5,252.5C 85.7619,256.024 87.7619,259.69 89.5,263.5C 89.6495,264.552 89.4828,265.552 89,266.5C 88.6667,266.167 88.3333,265.833 88,265.5C 83.6486,267.071 79.1486,268.071 74.5,268.5C 73.7515,266.668 72.7515,265.001 71.5,263.5C 70.791,262.596 69.791,262.263 68.5,262.5C 68.5,265.167 68.5,267.833 68.5,270.5C 64.1405,271.007 59.8072,271.673 55.5,272.5C 55.5,264.5 55.5,256.5 55.5,248.5C 56.4959,248.414 57.3292,248.748 58,249.5C 61.5437,247.695 65.0437,246.695 68.5,246.5C 68.2627,247.791 68.596,248.791 69.5,249.5C 71.0627,248.055 72.396,246.389 73.5,244.5C 77.6812,244.743 81.8478,243.743 86,241.5C 86.7172,242.044 87.2172,242.711 87.5,243.5 Z"/></g>
<g><path style="opacity:1" fill="#8f6169" d="M 290.5,252.5 C 290.741,254.898 290.074,256.898 288.5,258.5C 288.259,256.102 288.926,254.102 290.5,252.5 Z"/></g>
<g><path style="opacity:1" fill="#a8666f" d="M 191.5,264.5 C 186.552,266.246 181.552,266.579 176.5,265.5C 181.493,265.084 186.493,264.751 191.5,264.5 Z"/></g>
<g><path style="opacity:1" fill="#462f3d" d="M 302.5,262.5 C 302.586,263.496 302.252,264.329 301.5,265C 302.094,265.464 302.761,265.631 303.5,265.5C 301.539,267.963 299.372,270.297 297,272.5C 298.018,268.804 299.851,265.471 302.5,262.5 Z"/></g>
<g><path style="opacity:1" fill="#fa9ea0" d="M 105.5,253.5 C 105.833,253.5 106.167,253.5 106.5,253.5C 106.108,256.722 106.608,259.722 108,262.5C 112.057,260.451 116.224,259.784 120.5,260.5C 120.5,266.167 120.5,271.833 120.5,277.5C 116.21,278.425 111.876,279.091 107.5,279.5C 105.53,271.231 104.864,262.565 105.5,253.5 Z"/></g>
<g><path style="opacity:1" fill="#613d4b" d="M 121.5,251.5 C 122.492,251.328 123.158,251.662 123.5,252.5C 121.845,260.617 120.845,268.95 120.5,277.5C 120.5,271.833 120.5,266.167 120.5,260.5C 120.19,257.287 120.523,254.287 121.5,251.5 Z"/></g>
<g><path style="opacity:1" fill="#7b4f5a" d="M 71.5,263.5 C 69.8459,271.281 68.8459,279.281 68.5,287.5C 68.5,281.833 68.5,276.167 68.5,270.5C 68.5,267.833 68.5,265.167 68.5,262.5C 69.791,262.263 70.791,262.596 71.5,263.5 Z"/></g>
<g><path style="opacity:1" fill="#140e1d" d="M 326.5,269.5 C 317.11,283.059 305.777,294.893 292.5,305C 276.711,315.449 259.378,321.616 240.5,323.5C 234.974,323.821 229.64,323.488 224.5,322.5C 253.96,311.911 281.627,297.911 307.5,280.5C 313.818,277.329 319.485,273.162 324.5,268C 325.816,267.472 326.483,267.972 326.5,269.5 Z"/></g>
<g><path style="opacity:1" fill="#f69b9d" d="M 89.5,263.5 C 93.5006,268.857 97.1672,274.524 100.5,280.5C 95.1205,282.276 89.6205,283.61 84,284.5C 80.5685,279.3 77.4018,273.967 74.5,268.5C 79.1486,268.071 83.6486,267.071 88,265.5C 88.3333,265.833 88.6667,266.167 89,266.5C 89.4828,265.552 89.6495,264.552 89.5,263.5 Z"/></g>
<g><path style="opacity:1" fill="#7a505a" d="M 336.5,272.5 C 336.59,275.152 335.924,277.485 334.5,279.5C 334.5,278.167 334.5,276.833 334.5,275.5C 335.167,274.5 335.833,273.5 336.5,272.5 Z"/></g>
<g><path style="opacity:1" fill="#f6a1a2" d="M 281.5,280.5 C 281.047,281.458 280.381,282.292 279.5,283C 280.552,284.119 281.719,284.619 283,284.5C 284.487,283.747 284.654,282.914 283.5,282C 285.271,279.887 286.771,280.053 288,282.5C 289.113,281.289 290.28,281.289 291.5,282.5C 292.814,281.687 293.981,280.687 295,279.5C 295.689,280.357 296.522,281.023 297.5,281.5C 299.583,280.041 301.75,278.708 304,277.5C 304.667,278.167 305.333,278.833 306,279.5C 307.107,278.288 307.607,278.621 307.5,280.5C 281.627,297.911 253.96,311.911 224.5,322.5C 222.973,322.427 221.973,323.094 221.5,324.5C 219.574,325.242 217.741,326.242 216,327.5C 212.8,326.445 209.8,326.445 207,327.5C 206.333,328.167 205.667,328.833 205,329.5C 202.368,329.707 200.035,329.374 198,328.5C 197.536,329.094 197.369,329.761 197.5,330.5C 182.511,326.339 168.511,320.005 155.5,311.5C 155.167,311.833 154.833,312.167 154.5,312.5C 160.882,320.882 168.215,328.215 176.5,334.5C 173.136,333.524 169.969,332.857 167,332.5C 165.676,333.88 164.343,334.214 163,333.5C 162.309,335.891 161.309,335.891 160,333.5C 158.173,335.154 156.34,335.988 154.5,336C 155.96,336.811 156.293,337.645 155.5,338.5C 153.739,337.965 152.406,336.965 151.5,335.5C 152.043,335.44 152.376,335.107 152.5,334.5C 140.367,314.574 131.867,293.241 127,270.5C 129.29,273.58 131.457,276.747 133.5,280C 137.81,279.679 142.143,279.179 146.5,278.5C 148.605,286.025 149.938,293.692 150.5,301.5C 167.244,301.344 183.244,304.51 198.5,311C 203.586,313.96 208.753,316.794 214,319.5C 233.69,301.556 256.19,288.556 281.5,280.5 Z"/></g>
<g><path style="opacity:1" fill="#fc9fa1" d="M 68.5,270.5 C 68.5,276.167 68.5,281.833 68.5,287.5C 64.1667,288.167 59.8333,288.833 55.5,289.5C 55.5,283.833 55.5,278.167 55.5,272.5C 59.8072,271.673 64.1405,271.007 68.5,270.5 Z"/></g>
<g><path style="opacity:1" fill="#9d6b71" d="M 121.5,284.5 C 116.137,284.949 110.804,285.616 105.5,286.5C 109.148,284.659 113.148,283.659 117.5,283.5C 119.045,283.511 120.378,283.844 121.5,284.5 Z"/></g>
<g><path style="opacity:1" fill="#f8a3a3" d="M 121.5,284.5 C 124.206,305.591 133.872,322.591 150.5,335.5C 148.799,335.966 147.299,335.966 146,335.5C 145.333,336.167 144.667,336.833 144,337.5C 142.249,336.826 140.583,336.493 139,336.5C 137.796,337.471 137.296,338.471 137.5,339.5C 136.685,337.724 135.518,337.057 134,337.5C 133.53,338.577 133.697,339.577 134.5,340.5C 119.569,332.049 110.069,319.382 106,302.5C 105.501,297.177 105.334,291.844 105.5,286.5C 110.804,285.616 116.137,284.949 121.5,284.5 Z"/></g>
<g><path style="opacity:1" fill="#f99fa1" d="M 326.5,269.5 C 325.455,272.114 324.955,274.78 325,277.5C 327.295,277.311 329.295,275.977 331,273.5C 331.741,274.641 332.575,274.641 333.5,273.5C 334.298,273.957 334.631,274.624 334.5,275.5C 334.5,276.833 334.5,278.167 334.5,279.5C 325.299,301.711 310.299,319.045 289.5,331.5C 288.559,328.875 287.393,328.875 286,331.5C 283.925,328.972 283.092,329.139 283.5,332C 282.584,332.374 281.75,332.874 281,333.5C 279.33,333.656 277.663,332.99 276,331.5C 274.662,332.506 273.329,333.506 272,334.5C 271.333,333.167 270.667,333.167 270,334.5C 269,333.5 268,332.5 267,331.5C 265.97,334.257 264.303,335.591 262,335.5C 260.571,332.644 258.737,332.144 256.5,334C 257.654,334.914 257.487,335.747 256,336.5C 254.261,336.434 252.428,335.767 250.5,334.5C 248.617,334.876 247.117,335.876 246,337.5C 245.261,336.426 244.261,335.759 243,335.5C 241.37,336.547 239.704,337.547 238,338.5C 237.196,337.196 236.029,336.529 234.5,336.5C 234.032,337.82 232.699,338.82 230.5,339.5C 219.076,337.912 208.076,334.912 197.5,330.5C 197.369,329.761 197.536,329.094 198,328.5C 200.035,329.374 202.368,329.707 205,329.5C 205.667,328.833 206.333,328.167 207,327.5C 209.8,326.445 212.8,326.445 216,327.5C 217.741,326.242 219.574,325.242 221.5,324.5C 228.022,324.823 234.355,324.49 240.5,323.5C 259.378,321.616 276.711,315.449 292.5,305C 305.777,294.893 317.11,283.059 326.5,269.5 Z"/></g>
<g><path style="opacity:1" fill="#160f1e" d="M 197.5,330.5 C 208.076,334.912 219.076,337.912 230.5,339.5C 233.641,340.321 236.975,340.821 240.5,341C 217.967,348.656 196.634,346.49 176.5,334.5C 168.215,328.215 160.882,320.882 154.5,312.5C 154.833,312.167 155.167,311.833 155.5,311.5C 168.511,320.005 182.511,326.339 197.5,330.5 Z"/></g>
<g><path style="opacity:1" fill="#563745" d="M 224.5,322.5 C 229.64,323.488 234.974,323.821 240.5,323.5C 234.355,324.49 228.022,324.823 221.5,324.5C 221.973,323.094 222.973,322.427 224.5,322.5 Z"/></g>
<g><path style="opacity:1" fill="#f99b9e" d="M 289.5,331.5 C 284.012,335.115 278.012,337.782 271.5,339.5C 266.002,339.952 260.669,340.619 255.5,341.5C 240.098,357.272 221.264,364.605 199,363.5C 189.256,363.808 180.089,361.642 171.5,357C 167.5,354.333 164.167,351 161.5,347C 151.728,347.286 142.728,345.119 134.5,340.5C 133.697,339.577 133.53,338.577 134,337.5C 135.518,337.057 136.685,337.724 137.5,339.5C 137.296,338.471 137.796,337.471 139,336.5C 140.583,336.493 142.249,336.826 144,337.5C 144.667,336.833 145.333,336.167 146,335.5C 147.299,335.966 148.799,335.966 150.5,335.5C 150.833,335.5 151.167,335.5 151.5,335.5C 152.406,336.965 153.739,337.965 155.5,338.5C 156.293,337.645 155.96,336.811 154.5,336C 156.34,335.988 158.173,335.154 160,333.5C 161.309,335.891 162.309,335.891 163,333.5C 164.343,334.214 165.676,333.88 167,332.5C 169.969,332.857 173.136,333.524 176.5,334.5C 196.634,346.49 217.967,348.656 240.5,341C 236.975,340.821 233.641,340.321 230.5,339.5C 232.699,338.82 234.032,337.82 234.5,336.5C 236.029,336.529 237.196,337.196 238,338.5C 239.704,337.547 241.37,336.547 243,335.5C 244.261,335.759 245.261,336.426 246,337.5C 247.117,335.876 248.617,334.876 250.5,334.5C 252.428,335.767 254.261,336.434 256,336.5C 257.487,335.747 257.654,334.914 256.5,334C 258.737,332.144 260.571,332.644 262,335.5C 264.303,335.591 265.97,334.257 267,331.5C 268,332.5 269,333.5 270,334.5C 270.667,333.167 271.333,333.167 272,334.5C 273.329,333.506 274.662,332.506 276,331.5C 277.663,332.99 279.33,333.656 281,333.5C 281.75,332.874 282.584,332.374 283.5,332C 283.092,329.139 283.925,328.972 286,331.5C 287.393,328.875 288.559,328.875 289.5,331.5 Z"/></g>
<g><path style="opacity:1" fill="#472c3b" d="M 271.5,339.5 C 271.082,340.222 270.416,340.722 269.5,341C 264.845,341.499 260.179,341.666 255.5,341.5C 260.669,340.619 266.002,339.952 271.5,339.5 Z"/></g>
</svg>
