<svg viewBox="0 0 1024 1024" xmlns="http://www.w3.org/2000/svg" id="ad55014b-02c3-4481-bd80-516a8ca8a811"><defs><style>.a43aacb1-fb39-467a-be35-742585567137{fill:#e61f19;opacity:0.2;}.e9cf6743-9405-4459-8823-b5597cfe844b{fill:#fff;}.b223bfb6-df8c-49fc-ab60-cb7cd84991c2{fill:#040000;}.af89e30a-52f0-42d2-88fc-aa9a0e9f99b5{fill:#060001;}.ace61181-e177-4c87-a699-34d3a2e0d09a{fill:none;}.bf8c2d65-1ac3-4cfa-82e8-132c83c30f1d{fill:#fffdfd;}</style></defs><title>党建1024px尺寸</title><path d="M855.66,600.31a6.51,6.51,0,0,1,6.61-6.17l46.2,1.58A196.54,196.54,0,0,0,884.34,549c-175.21-253.67,48.78-167.78-122.5-390.25s-506.3-40.13-545.2,92.79c-14.64,50-48.94,83.6-72.16,106.62-10.93,10.84-22,20.68-32.47,30.91l32.64,22.7A6.4,6.4,0,0,1,141,423.47a6.33,6.33,0,0,1-3.65-1.15l-34.44-24C82,420.47,65.13,446.05,59.76,487.67c-15.68,121.5,2.53,162,195.78,347.47C476.63,1047.26,973,840.89,912.43,608.67l-50.59-1.74A6.4,6.4,0,0,1,855.66,600.31Z" class="a43aacb1-fb39-467a-be35-742585567137"></path><path d="M520.73,933.33H345.79v-320l-21.33-172c44.55-34.29,103.09-59.9,178.06-58.44h36.41C609.21,381.56,665.05,404,708.46,435L695.66,604.8V933.33H520.73" class="e9cf6743-9405-4459-8823-b5597cfe844b"></path><path d="M695.66,935.47H345.79a2.13,2.13,0,0,1-2.13-2.14v-320l-21.32-171.7a2.16,2.16,0,0,1,.82-2c52.45-40.36,112.83-60.12,179.4-58.87h36.35c62.9-1.21,120.39,16.44,170.79,52.5a2.13,2.13,0,0,1,.89,1.89L697.79,605V933.33A2.13,2.13,0,0,1,695.66,935.47ZM347.93,931.2h345.6V604.8l12.71-168.73c-49.39-35-105.7-52.2-167.19-51H502.52c-65.25-1.29-124.36,18-175.79,57.25l21.18,170.75Z" class="b223bfb6-df8c-49fc-ab60-cb7cd84991c2"></path><path d="M407.66,310.49h29.67a0,0,0,0,1,0,0v49.72a0,0,0,0,1,0,0H407.66a24.83,24.83,0,0,1-24.83-24.83v0A24.83,24.83,0,0,1,407.66,310.49Z" class="e9cf6743-9405-4459-8823-b5597cfe844b"></path><path d="M437.33,362.34H406.51a25.85,25.85,0,0,1-25.82-25.82v-2.34a25.85,25.85,0,0,1,25.82-25.82h30.82a2.13,2.13,0,0,1,2.13,2.13v49.72A2.13,2.13,0,0,1,437.33,362.34Zm-30.82-49.72A21.58,21.58,0,0,0,385,334.18v2.34a21.58,21.58,0,0,0,21.55,21.55H435.2V312.62Z" class="b223bfb6-df8c-49fc-ab60-cb7cd84991c2"></path><path transform="translate(1189.93 670.7) rotate(180)" d="M592.57,310.49h29.65a0,0,0,0,1,0,0v49.72a0,0,0,0,1,0,0H592.57a24.86,24.86,0,0,1-24.86-24.86v0A24.86,24.86,0,0,1,592.57,310.49Z" class="e9cf6743-9405-4459-8823-b5597cfe844b"></path><path d="M598.53,362.34H567.71a2.13,2.13,0,0,1-2.13-2.13V310.49a2.13,2.13,0,0,1,2.13-2.13h30.82a25.85,25.85,0,0,1,25.82,25.82v2.34A25.85,25.85,0,0,1,598.53,362.34Zm-28.68-4.27h28.68a21.58,21.58,0,0,0,21.56-21.55v-2.34a21.58,21.58,0,0,0-21.56-21.56H569.85Z" class="b223bfb6-df8c-49fc-ab60-cb7cd84991c2"></path><path d="M572,415.59c.76,18-28.25,33.9-64.8,35.45s-66.84-11.84-67.6-29.88,28.26-33.9,64.84-35.45S571.27,397.55,572,415.59Z" class="b223bfb6-df8c-49fc-ab60-cb7cd84991c2"></path><path d="M483.18,228h38.67a66.08,66.08,0,0,1,66.08,66.08v63.14a85.42,85.42,0,0,1-85.42,85.42h0a85.42,85.42,0,0,1-85.42-85.42V294.11A66.08,66.08,0,0,1,483.18,228Z" class="e9cf6743-9405-4459-8823-b5597cfe844b"></path><path d="M505.44,444.8h-5.83A84.74,84.74,0,0,1,415,360.16V228a2.13,2.13,0,0,1,2.13-2.13H587.94a2.13,2.13,0,0,1,2.13,2.13V360.16A84.73,84.73,0,0,1,505.44,444.8Zm-86.2-214.64v130a80.46,80.46,0,0,0,80.37,80.37h5.83a80.45,80.45,0,0,0,80.36-80.37v-130Z" class="b223bfb6-df8c-49fc-ab60-cb7cd84991c2"></path><path d="M608.86,198.15c.07-.77.12-1.55.12-2.34C609,181,596.17,169,580.36,169A30.13,30.13,0,0,0,569.3,171c-8.69-8.46-21.74-13.84-36.33-13.84-15,0-28.41,5.72-37.09,14.62a42.42,42.42,0,0,0-28.76-11c-16.93,0-31.46,9.6-37.78,23.3a31.12,31.12,0,0,0-12.24-2.52c-16.15,0-29.52,12.35-32.1,28.55-11.59,5.22-19.53,15.79-19.53,28,0,14.06,10.5,26,25,30a35.35,35.35,0,0,0,62.85,6.65,39.68,39.68,0,0,0,49-5.11c7.51,10.78,19.42,17.78,32.87,17.78a39.34,39.34,0,0,0,27.71-11.65,50.22,50.22,0,0,0,25.27,6.76c26.4,0,47.81-19.89,47.81-44.43C635.93,220.51,624.86,205.33,608.86,198.15Z" class="b223bfb6-df8c-49fc-ab60-cb7cd84991c2"></path><path d="M396.9,332.4s15.4-3.36,20.2,6.45" class="e9cf6743-9405-4459-8823-b5597cfe844b"></path><path d="M417.11,341a2.13,2.13,0,0,1-1.92-1.2c-4-8.21-17.7-5.34-17.84-5.3a2.13,2.13,0,0,1-.91-4.17c.7-.16,17.1-3.59,22.58,7.59a2.14,2.14,0,0,1-1,2.86A2.08,2.08,0,0,1,417.11,341Z" class="b223bfb6-df8c-49fc-ab60-cb7cd84991c2"></path><path d="M608.15,332.4s-15.4-3.36-20.2,6.45" class="e9cf6743-9405-4459-8823-b5597cfe844b"></path><path d="M588,341a2.09,2.09,0,0,1-.94-.22,2.14,2.14,0,0,1-1-2.86c5.48-11.18,21.88-7.75,22.58-7.59a2.13,2.13,0,0,1,1.63,2.53,2.16,2.16,0,0,1-2.54,1.64c-.14,0-13.83-2.88-17.84,5.3A2.12,2.12,0,0,1,588,341Z" class="b223bfb6-df8c-49fc-ab60-cb7cd84991c2"></path><path d="M211.5,662.69c-4.78,0-9.18-3.37-13.08-10-3.08-5.24-6.24-8-9.13-8.07h-.07c-3.63,0-6.73,4.3-7.9,6.16a29,29,0,0,1-6.44,7.6c-7.45,5.86-15.36,4.85-21.69-2.76-3.14-3.77-6.14-5.68-8.92-5.68s-4.93,1.91-6.27,3.52c-3,3.58-5.89,5.9-8.89,7.09-4.3,1.7-10.75,2.36-17.05-4.22-2.5-2.61-5.08-3.86-7.57-3.58-4.87.45-8.61,6-8.64,6a2.14,2.14,0,0,1-3.58-2.33c.2-.3,4.85-7.3,11.82-7.94,3.87-.35,7.61,1.28,11.06,4.88,3.74,3.91,7.91,5,12.39,3.2,2.32-.92,4.67-2.83,7.18-5.85,1.93-2.31,5.14-5.06,9.55-5.06,4.1,0,8.21,2.43,12.19,7.22,4.93,5.91,10.09,6.61,15.78,2.13a24.9,24.9,0,0,0,5.47-6.51c1.92-3,6-8.15,11.51-8.15h.13c4.52.06,8.81,3.49,12.75,10.18,3.08,5.23,6.24,7.89,9.4,7.89h.06c4.56,0,8.75-5.74,10-7.93a2.13,2.13,0,0,1,3.73,2.07c-.23.41-5.68,10-13.65,10.12Z" class="b223bfb6-df8c-49fc-ab60-cb7cd84991c2"></path><path d="M211.5,688c-4.78,0-9.18-3.36-13.08-10-3.08-5.24-6.24-8-9.13-8.08h-.07c-3.63,0-6.73,4.3-7.9,6.16a29,29,0,0,1-6.44,7.59c-7.45,5.86-15.36,4.86-21.69-2.76-3.14-3.77-6.14-5.68-8.92-5.68s-4.93,1.92-6.27,3.52c-3,3.58-5.89,5.9-8.89,7.09-4.3,1.71-10.75,2.36-17.05-4.22-2.5-2.61-5.08-3.85-7.57-3.58-4.87.45-8.61,6-8.64,6a2.14,2.14,0,0,1-3.58-2.33c.2-.3,4.85-7.3,11.82-8,3.87-.36,7.61,1.28,11.06,4.88,3.74,3.91,7.91,5,12.39,3.21,2.32-.93,4.67-2.84,7.18-5.86,1.93-2.31,5.14-5.06,9.55-5.06,4.1,0,8.21,2.43,12.19,7.22,4.93,5.91,10.09,6.61,15.78,2.14a25.07,25.07,0,0,0,5.47-6.51c1.92-3.06,6-8.16,11.51-8.16h.13c4.52.07,8.81,3.5,12.75,10.19,3.08,5.23,6.24,7.88,9.4,7.88h.06c4.56,0,8.75-5.74,10-7.93a2.14,2.14,0,0,1,3.73,2.08c-.23.41-5.68,10-13.65,10.12Z" class="b223bfb6-df8c-49fc-ab60-cb7cd84991c2"></path><path d="M909.89,389.62c-4.78,0-9.18-3.36-13.08-10-3.08-5.24-6.24-8-9.13-8.08h-.06c-3.64,0-6.74,4.3-7.9,6.15a29.22,29.22,0,0,1-6.45,7.6c-7.45,5.86-15.36,4.85-21.69-2.76-3.14-3.77-6.14-5.68-8.92-5.68s-4.93,1.91-6.27,3.52c-3,3.58-5.88,5.9-8.88,7.09-4.3,1.7-10.75,2.37-17.06-4.22-2.49-2.6-5-3.83-7.56-3.58-4.91.44-8.62,6-8.65,6a2.13,2.13,0,0,1-3.57-2.34c.19-.29,4.84-7.29,11.81-7.94,3.88-.36,7.61,1.28,11.06,4.88,3.73,3.91,7.91,5,12.39,3.2,2.32-.92,4.67-2.83,7.18-5.85,1.93-2.31,5.14-5.06,9.55-5.06,4.11,0,8.21,2.43,12.2,7.22,4.92,5.91,10.08,6.61,15.77,2.14a25.24,25.24,0,0,0,5.47-6.51c1.94-3.09,5.94-8.43,11.65-8.16,4.52.07,8.8,3.49,12.74,10.18,3.1,5.27,6.26,7.8,9.46,7.89,4.56-.05,8.75-5.74,10-7.93a2.14,2.14,0,0,1,3.73,2.08c-.23.41-5.68,10-13.65,10.12Z" class="b223bfb6-df8c-49fc-ab60-cb7cd84991c2"></path><path d="M909.89,414.93c-4.78,0-9.18-3.36-13.08-10-3.08-5.24-6.24-8-9.13-8.08h-.06c-3.64,0-6.74,4.3-7.9,6.16a29.39,29.39,0,0,1-6.45,7.6c-7.45,5.85-15.36,4.84-21.69-2.77-3.14-3.76-6.14-5.68-8.92-5.68s-4.93,1.92-6.27,3.53c-3,3.57-5.88,5.89-8.88,7.09-4.3,1.7-10.75,2.36-17.06-4.22-2.49-2.61-5-3.82-7.56-3.59-4.91.45-8.62,6-8.65,6a2.13,2.13,0,0,1-3.57-2.34c.19-.3,4.84-7.3,11.81-7.94,3.88-.36,7.61,1.28,11.06,4.88,3.73,3.9,7.91,5,12.39,3.2,2.32-.92,4.67-2.84,7.18-5.85,1.93-2.31,5.14-5.06,9.55-5.06,4.11,0,8.21,2.43,12.2,7.21,4.92,5.92,10.08,6.62,15.77,2.14a24.9,24.9,0,0,0,5.47-6.51c1.94-3.08,5.94-8.41,11.65-8.15,4.52.06,8.8,3.49,12.74,10.18,3.1,5.26,6.26,7.93,9.46,7.89,4.56-.05,8.75-5.75,10-7.94a2.14,2.14,0,0,1,3.73,2.08c-.23.41-5.68,10-13.65,10.12Z" class="b223bfb6-df8c-49fc-ab60-cb7cd84991c2"></path><path d="M837.84,306.75a20.58,20.58,0,1,1,20.57-20.57A20.6,20.6,0,0,1,837.84,306.75Zm0-36.88a16.31,16.31,0,1,0,16.31,16.31A16.32,16.32,0,0,0,837.84,269.87Z" class="b223bfb6-df8c-49fc-ab60-cb7cd84991c2"></path><circle r="6.23" cy="351.11" cx="471.49" class="b223bfb6-df8c-49fc-ab60-cb7cd84991c2"></circle><circle r="6.23" cy="351.11" cx="535.83" class="b223bfb6-df8c-49fc-ab60-cb7cd84991c2"></circle><path d="M455.68,373.38h-.12l-20.28-1.11a2.13,2.13,0,0,1-2-2.24,2.1,2.1,0,0,1,2.25-2l20.28,1.12a2.13,2.13,0,0,1-.11,4.26Z" class="b223bfb6-df8c-49fc-ab60-cb7cd84991c2"></path><path d="M550.59,373.38a2.13,2.13,0,0,1-.11-4.26L570.76,368a2.1,2.1,0,0,1,2.25,2,2.13,2.13,0,0,1-2,2.24l-20.28,1.11Z" class="b223bfb6-df8c-49fc-ab60-cb7cd84991c2"></path><path d="M554.89,298.26c-6.8,0-15.5-2.51-24.09-12a2.13,2.13,0,1,1,3.17-2.86c15.7,17.42,31.28,8.23,31.44,8.14a2.13,2.13,0,0,1,2.22,3.64A26.86,26.86,0,0,1,554.89,298.26Z" class="b223bfb6-df8c-49fc-ab60-cb7cd84991c2"></path><path d="M450.16,298.26a26.88,26.88,0,0,1-12.75-3.11,2.13,2.13,0,0,1,2.21-3.64c.64.38,15.84,9.19,31.45-8.14a2.13,2.13,0,1,1,3.17,2.86C465.66,295.75,457,298.26,450.16,298.26Z" class="b223bfb6-df8c-49fc-ab60-cb7cd84991c2"></path><path d="M463.62,368a29.87,29.87,0,1,1,29.87-29.87A29.9,29.9,0,0,1,463.62,368Zm0-55.47a25.6,25.6,0,1,0,25.6,25.6A25.64,25.64,0,0,0,463.62,312.53Z" class="b223bfb6-df8c-49fc-ab60-cb7cd84991c2"></path><path d="M541.42,368a29.87,29.87,0,1,1,29.87-29.87A29.9,29.9,0,0,1,541.42,368Zm0-55.47a25.6,25.6,0,1,0,25.6,25.6A25.63,25.63,0,0,0,541.42,312.53Z" class="b223bfb6-df8c-49fc-ab60-cb7cd84991c2"></path><path d="M513.69,342.4a2.16,2.16,0,0,1-1.43-.54c-8.16-7.31-19.25-.13-19.72.18a2.13,2.13,0,0,1-2.37-3.55c4.91-3.27,16.43-7.44,24.94.19a2.13,2.13,0,0,1-1.42,3.72Z" class="b223bfb6-df8c-49fc-ab60-cb7cd84991c2"></path><path d="M524.44,414.93l-.4,0-4.35-.83a92.06,92.06,0,0,0-35.4.17l-3.27.65a5.26,5.26,0,0,1-4.57-2,5.15,5.15,0,0,1-.9-4.53l.36-1.37c2.13-8.2,5.69-21.92,26-21.92,21.3,0,25.32,15,27.48,23.1a5.29,5.29,0,0,1-.84,4.72A5.21,5.21,0,0,1,524.44,414.93ZM502,389.33c-17.06,0-19.76,10.38-21.92,18.73l-.37,1.41a.91.91,0,0,0,.16.82,1,1,0,0,0,.78.38l2.85-.61a96.07,96.07,0,0,1,37-.18l4.1.78a1,1,0,0,0,.63-.37.91.91,0,0,0,.16-.82C523.19,401.33,520,389.33,502,389.33Z" class="b223bfb6-df8c-49fc-ab60-cb7cd84991c2"></path><path d="M431.16,764.51l10.48,115.25a7.77,7.77,0,0,0,8.55,7l121.73-16.24a7.78,7.78,0,0,0,3.5-14.2L546.65,832a7.76,7.76,0,0,1-2.35-10.46L588,748.64a7.77,7.77,0,0,0-2.1-10.28L551,713a7.78,7.78,0,0,0-10.83,1.68l-50.45,68.46a7.76,7.76,0,0,1-11,1.55l-35.09-27A7.78,7.78,0,0,0,431.16,764.51Z" class="b223bfb6-df8c-49fc-ab60-cb7cd84991c2"></path><path d="M253.11,587.73s-67.05,245.94,98.14,328.54c8.53,4.26,12.66-1.41,17.06,0,0,0,17.07,4.26,21.34-4.27,0,0,12.8,0,8.53-12.8,0,0,21.33-8.53,0-21.33-12.88-7.73-26.87-17.1-32-23a1.81,1.81,0,0,1,1.11-3c9.81-1.41,28.22,5.11,30.87-8.12,4.27-21.33-40.9-6.76-46.93-12.8-4-4-14.28-5.07-25.6-2.2a3.17,3.17,0,0,1-3.74-2.06c-4.64-13.18-28.17-86.42-13.33-162.14,2.64-13.47,12.47-57.58,17.07-72.53Z" class="e9cf6743-9405-4459-8823-b5597cfe844b"></path><path d="M357.55,920a15.93,15.93,0,0,1-7.26-1.85c-164.84-82.42-99.91-328.52-99.24-331l.46-1.67,77,4.53-.79,2.6c-4.52,14.68-14.28,58.32-17,72.31-14.77,75.42,8.45,147.36,13.25,161a1.05,1.05,0,0,0,1.2.7c11.87-3,23-1.9,27.63,2.76,1.47,1.47,9.68.94,15.67.55,11.49-.76,24.52-1.6,29.83,4.47,2.14,2.45,2.82,5.71,2,9.71-2.26,11.33-13.92,10.54-23.28,9.91a55.16,55.16,0,0,0-8.78-.17c4.47,4.88,16,13.1,31.07,22.15,7.33,4.4,10.86,9,10.49,13.72-.44,5.45-6.09,9.07-9,10.6.9,3.75.47,6.87-1.27,9.29-2.37,3.29-6.47,4.16-8.54,4.4-5.72,8.52-22.39,4.47-23.12,4.29-1.15-.36-2.31,0-4.13.53A19.84,19.84,0,0,1,357.55,920ZM254.74,590c-5.41,21.73-57.16,247.08,97.46,324.39,4.46,2.23,7.38,1.32,10.21.44,2.06-.65,4.2-1.31,6.55-.57,4.15,1,15.91,2.54,18.78-3.18l.58-1.17h1.32s4.46-.07,6.36-2.73c1.17-1.63,1.22-4.07.16-7.27l-.64-1.9,1.86-.75c2.16-.87,7.83-4,8.13-7.81.23-2.91-2.68-6.27-8.43-9.71-7.64-4.59-26.11-16.06-32.5-23.47a3.95,3.95,0,0,1,2.43-6.49,52.79,52.79,0,0,1,10.27.06c10.43.71,17.38.64,18.81-6.49.53-2.66.19-4.65-1-6.06-3.92-4.48-16.35-3.68-26.34-3-10.3.67-16.27.92-19-1.78-3-3-12.09-4.55-23.57-1.64a5.28,5.28,0,0,1-6.27-3.43c-4.87-13.83-28.4-86.75-13.41-163.25,2.6-13.31,11.54-53.36,16.35-70.15Z" class="b223bfb6-df8c-49fc-ab60-cb7cd84991c2"></path><path d="M398.18,899.2s-25.6-12.8-34.13-25.6" class="e9cf6743-9405-4459-8823-b5597cfe844b"></path><path d="M398.18,901.33a2.21,2.21,0,0,1-1-.22c-1.06-.54-26.2-13.21-35-26.33a2.13,2.13,0,1,1,3.55-2.36c8.12,12.17,33.06,24.75,33.31,24.87a2.13,2.13,0,0,1-.95,4Z" class="b223bfb6-df8c-49fc-ab60-cb7cd84991c2"></path><path d="M389.65,912s-29.87-12.8-38.4-29.87" class="e9cf6743-9405-4459-8823-b5597cfe844b"></path><path d="M389.65,914.13a2,2,0,0,1-.84-.17c-1.25-.54-30.69-13.31-39.47-30.87a2.13,2.13,0,1,1,3.81-1.91c8.09,16.18,37,28.73,37.34,28.86a2.13,2.13,0,0,1-.84,4.09Z" class="b223bfb6-df8c-49fc-ab60-cb7cd84991c2"></path><path d="M338.45,890.67s12.8,17.06,29.86,25.6" class="e9cf6743-9405-4459-8823-b5597cfe844b"></path><path d="M368.31,918.4a2,2,0,0,1-.95-.23C350,909.52,337.27,892.66,336.74,892a2.13,2.13,0,1,1,3.41-2.56c.13.16,12.72,16.77,29.12,25a2.13,2.13,0,0,1-1,4Z" class="b223bfb6-df8c-49fc-ab60-cb7cd84991c2"></path><path d="M779.81,587.73s67.05,245.94-98.13,328.54c-8.54,4.26-12.67-1.41-17.07,0,0,0-17.07,4.26-21.33-4.27,0,0-12.8,0-8.54-12.8,0,0-21.33-8.53,0-21.33,12.88-7.73,26.87-17.1,32-23a1.81,1.81,0,0,0-1.11-3c-9.81-1.41-28.22,5.11-30.87-8.12-4.26-21.33,40.9-6.76,46.94-12.8,4-4,14.28-5.07,25.6-2.2a3.16,3.16,0,0,0,3.73-2.06c4.64-13.18,28.17-86.42,13.33-162.14C721.7,651.06,711.87,607,707.28,592Z" class="e9cf6743-9405-4459-8823-b5597cfe844b"></path><path d="M675.37,920a19.84,19.84,0,0,1-6.12-1.15c-1.82-.57-3-.9-4-.57-.85.22-17.54,4.27-23.25-4.25-2.07-.24-6.17-1.11-8.54-4.4-1.74-2.42-2.17-5.54-1.27-9.29-3-1.53-8.6-5.15-9-10.6-.37-4.7,3.16-9.32,10.49-13.72,15.09-9,26.6-17.27,31.07-22.15a55.14,55.14,0,0,0-8.78.17c-9.36.63-21,1.42-23.28-9.91-.8-4-.12-7.26,2-9.71C640,828.37,653,829.21,664.5,830c6,.38,14.2.92,15.67-.55,4.66-4.66,15.76-5.77,27.63-2.76a1,1,0,0,0,1.2-.7c4.8-13.66,28-85.6,13.25-161-2.74-14-12.5-57.63-17-72.31l-.8-2.6,77-4.53.46,1.67c.67,2.48,65.6,248.58-99.24,331A15.93,15.93,0,0,1,675.37,920Zm-9.27-6.13a14.88,14.88,0,0,1,4.41.91c2.83.87,5.75,1.79,10.21-.44C835.38,837,783.6,611.7,778.18,590l-68.1,4c4.81,16.79,13.75,56.84,16.36,70.15,15,76.5-8.55,149.42-13.42,163.25a5.27,5.27,0,0,1-6.27,3.43c-11.48-2.91-20.55-1.38-23.57,1.64-2.69,2.7-8.65,2.46-19,1.78-10-.65-22.42-1.45-26.34,3-1.24,1.41-1.58,3.4-1,6.06,1.43,7.13,8.38,7.2,18.81,6.49a52.11,52.11,0,0,1,10.28-.06,3.95,3.95,0,0,1,2.42,6.49c-6.39,7.41-24.86,18.88-32.5,23.47-5.75,3.45-8.67,6.81-8.43,9.72.3,3.84,6.11,7,8.12,7.8l1.87.75-.64,1.9c-1.06,3.21-1,5.66.16,7.29,1.9,2.63,6.31,2.71,6.35,2.71h1.32l.59,1.18c3.41,6.81,18.76,3.19,18.91,3.15A6.47,6.47,0,0,1,666.1,913.89Z" class="b223bfb6-df8c-49fc-ab60-cb7cd84991c2"></path><path d="M634.74,899.2s25.6-12.8,34.14-25.6" class="e9cf6743-9405-4459-8823-b5597cfe844b"></path><path d="M634.74,901.33a2.13,2.13,0,0,1-1-4c.25-.12,25.19-12.7,33.31-24.87a2.13,2.13,0,1,1,3.55,2.36c-8.75,13.12-33.89,25.79-34.95,26.33A2.21,2.21,0,0,1,634.74,901.33Z" class="b223bfb6-df8c-49fc-ab60-cb7cd84991c2"></path><path d="M643.28,912s29.86-12.8,38.4-29.87" class="e9cf6743-9405-4459-8823-b5597cfe844b"></path><path d="M643.28,914.13a2.13,2.13,0,0,1-.85-4.09c.29-.13,29.26-12.7,37.34-28.86a2.13,2.13,0,1,1,3.81,1.91c-8.78,17.56-38.22,30.33-39.47,30.87A2,2,0,0,1,643.28,914.13Z" class="b223bfb6-df8c-49fc-ab60-cb7cd84991c2"></path><path d="M694.48,890.67s-12.8,17.06-29.87,25.6" class="e9cf6743-9405-4459-8823-b5597cfe844b"></path><path d="M664.61,918.4a2.13,2.13,0,0,1-1-4c16.4-8.2,29-24.81,29.12-25a2.13,2.13,0,1,1,3.41,2.56c-.53.71-13.3,17.57-30.62,26.22A2,2,0,0,1,664.61,918.4Z" class="b223bfb6-df8c-49fc-ab60-cb7cd84991c2"></path><rect rx="4.5" height="38.4" width="814.93" y="929.07" x="115.39" class="e9cf6743-9405-4459-8823-b5597cfe844b"></rect><path d="M911.13,969.6H134.59a21.34,21.34,0,0,1,0-42.67H911.13a21.34,21.34,0,0,1,0,42.67ZM134.59,931.2a17.07,17.07,0,0,0,0,34.13H911.13a17.07,17.07,0,0,0,0-34.13Z" class="b223bfb6-df8c-49fc-ab60-cb7cd84991c2"></path><rect rx="4.5" height="38.4" width="366.93" y="929.07" x="115.39" class="af89e30a-52f0-42d2-88fc-aa9a0e9f99b5"></rect><path d="M463.13,969.6H134.59a21.34,21.34,0,0,1,0-42.67H463.13a21.34,21.34,0,0,1,0,42.67ZM134.59,931.2a17.07,17.07,0,0,0,0,34.13H463.13a17.07,17.07,0,0,0,0-34.13Z" class="b223bfb6-df8c-49fc-ab60-cb7cd84991c2"></path><line y2="630.4" x2="503.66" y1="690.13" x1="529.26" class="af89e30a-52f0-42d2-88fc-aa9a0e9f99b5"></line><path d="M529.26,692.27a2.14,2.14,0,0,1-2-1.3l-25.6-59.73a2.13,2.13,0,0,1,3.92-1.68l25.6,59.73a2.13,2.13,0,0,1-1.12,2.8A2.08,2.08,0,0,1,529.26,692.27Z" class="b223bfb6-df8c-49fc-ab60-cb7cd84991c2"></path><line y2="702.93" x2="499.39" y1="677.33" x1="465.26" class="af89e30a-52f0-42d2-88fc-aa9a0e9f99b5"></line><path d="M499.39,705.07a2.14,2.14,0,0,1-1.28-.43L464,679a2.13,2.13,0,1,1,2.56-3.41l34.13,25.6a2.13,2.13,0,0,1-1.28,3.84Z" class="b223bfb6-df8c-49fc-ab60-cb7cd84991c2"></path><line y2="728.53" x2="490.86" y1="715.73" x1="435.39" class="af89e30a-52f0-42d2-88fc-aa9a0e9f99b5"></line><path d="M490.86,730.67a2,2,0,0,1-.48-.06l-55.47-12.8a2.14,2.14,0,0,1-1.6-2.56,2.17,2.17,0,0,1,2.56-1.6l55.47,12.8a2.14,2.14,0,0,1-.48,4.22Z" class="b223bfb6-df8c-49fc-ab60-cb7cd84991c2"></path><path d="M641,803.1a2.17,2.17,0,0,1-1.51-.62c-8.79-8.8-12.44-17.33-10.83-25.36,1.84-9.21,10.1-15.14,15-17.91a20.31,20.31,0,0,1-7.84-11c-3.53-11.85,2.06-27.07,6.34-36.17-21.13,9.67-49-14.84-50.27-16a2.13,2.13,0,0,1,2.84-3.18c.33.29,33.41,29.4,51.88,10.92a2.13,2.13,0,0,1,3.33,2.62c-.15.24-14.77,24.71-10,40.61A16.35,16.35,0,0,0,649,757.43a2.14,2.14,0,0,1-.11,3.9c-.14.06-13.94,5.89-16.08,16.64-1.3,6.54,2,13.77,9.67,21.49A2.13,2.13,0,0,1,641,803.1Z" class="b223bfb6-df8c-49fc-ab60-cb7cd84991c2"></path><path d="M610.33,267.73s-12.8,34.14-8.54,42.67c0,0-4.26-4.27-12.8,0V280.53Z" class="b223bfb6-df8c-49fc-ab60-cb7cd84991c2"></path><path d="M397,267.73s12.8,34.14,8.54,42.67c0,0,4.26-4.27,12.8,0V280.53Z" class="b223bfb6-df8c-49fc-ab60-cb7cd84991c2"></path><path d="M661.53,181.62s46.93-67.49,68.26-41.89c14,16.79-6.81,18.61-17,20.05a113.51,113.51,0,0,0-18.15,4C684.52,167,671,172.54,661.53,181.62Z" class="e9cf6743-9405-4459-8823-b5597cfe844b"></path><path d="M661.53,183.75a2.13,2.13,0,0,1-1.76-3.35c1.35-1.94,33.33-47.53,57.31-48.58a17,17,0,0,1,14.35,6.55c4.62,5.54,6.14,10.12,4.63,14-2.62,6.76-13.49,8.23-21.41,9.3l-1.62.23a109.07,109.07,0,0,0-17.8,3.93c-9.57,3-22.93,8.46-32.23,17.33A2.13,2.13,0,0,1,661.53,183.75Zm56.41-47.68h-.67c-14.72.64-33.93,21.38-45,35a108.25,108.25,0,0,1,21.7-9.34,114.15,114.15,0,0,1,18.49-4.09l1.63-.22c6.1-.83,16.3-2.21,18-6.63,1.09-2.82-1.54-6.84-3.94-9.72A12.73,12.73,0,0,0,717.94,136.07Z" class="b223bfb6-df8c-49fc-ab60-cb7cd84991c2"></path><path d="M314.86,279.48s-81.9,7-70.35,38.29c7.57,20.5,19.53,3.38,25.88-4.78a112.46,112.46,0,0,1,12.53-13.73C290.69,292.1,302.25,283.2,314.86,279.48Z" class="e9cf6743-9405-4459-8823-b5597cfe844b"></path><path d="M253.58,329.6a8.62,8.62,0,0,1-1.24-.09c-4.11-.63-7.33-4.22-9.83-11a17,17,0,0,1,1.48-15.7c12.86-20.27,68.33-25.25,70.68-25.45a2.09,2.09,0,0,1,2.28,1.73,2.13,2.13,0,0,1-1.49,2.44c-12.33,3.64-23.72,12.5-31.1,19.29a109.29,109.29,0,0,0-12.28,13.48l-1,1.28C266.48,321.55,260.28,329.6,253.58,329.6Zm46.81-46.07c-17.35,2.81-44.9,9.12-52.8,21.57A12.75,12.75,0,0,0,246.51,317c1.3,3.52,3.48,7.8,6.47,8.26,4.69.72,11-7.44,14.72-12.31l1-1.31a114.56,114.56,0,0,1,12.76-14A109.27,109.27,0,0,1,300.39,283.53Z" class="b223bfb6-df8c-49fc-ab60-cb7cd84991c2"></path><ellipse transform="translate(390.13 866.96) rotate(-82.27)" ry="21.33" rx="6.4" cy="210.13" cx="691.39" class="e9cf6743-9405-4459-8823-b5597cfe844b"></ellipse><path d="M699.32,219.23a67.49,67.49,0,0,1-9.07-.64c-11.2-1.52-22.9-5.8-22.11-11.62.38-2.78,3.27-4.62,8.58-5.46a57,57,0,0,1,15.82.17c11.2,1.52,22.9,5.8,22.11,11.61-.38,2.79-3.27,4.63-8.58,5.46A43.63,43.63,0,0,1,699.32,219.23ZM683.54,205.3c-7,0-10.82,1.44-11.18,2.28.17,1.15,6.09,5.1,18.46,6.78s19-.5,19.59-1.64c-.26-1.26-6.19-5.15-18.44-6.81A61.78,61.78,0,0,0,683.54,205.3Zm26.88,7.45h0Z" class="b223bfb6-df8c-49fc-ab60-cb7cd84991c2"></path><path d="M631.66,150.4a2,2,0,0,1-.42,0,2.14,2.14,0,0,1-1.67-2.51c.22-1.13,5.69-27.77,19.21-35.09a15.33,15.33,0,0,1,13.54-.61c5.94,2.38,9,5.48,9,9.21a3.94,3.94,0,0,1,0,.69,11,11,0,0,1,2.3,2c3.13,3.62,3.85,9.41-.81,13.49a28.57,28.57,0,0,1-6,4.1,2.14,2.14,0,0,1-1.91-3.82,24.38,24.38,0,0,0,5.15-3.49c2.7-2.36,2.14-5.46.39-7.49a6.55,6.55,0,0,0-.64-.65c-3.88,5.82-13.58,10.24-15.91,11.24a2.13,2.13,0,0,1-2.74-2.92A41.79,41.79,0,0,1,660,122.87a9.3,9.3,0,0,1,6.92-2.37c-.64-1.5-2.76-3-6.14-4.39a11.12,11.12,0,0,0-9.93.4c-11.76,6.36-17,31.92-17.06,32.18A2.13,2.13,0,0,1,631.66,150.4Zm33.79-25.6a5.5,5.5,0,0,0-2.72,1.32,26,26,0,0,0-3.48,3.65A28.53,28.53,0,0,0,665.45,124.8Z" class="b223bfb6-df8c-49fc-ab60-cb7cd84991c2"></path><path d="M217.15,611.1a17,17,0,0,1-9.59-23.35c20-42.1,77.59-166.42,137.32-162.15,76.18,5.44,76.74,67.38,2.64,216.73a17.11,17.11,0,0,1-21.15,8.49Z" class="b223bfb6-df8c-49fc-ab60-cb7cd84991c2"></path><path d="M815.77,611.1a17,17,0,0,0,9.59-23.35c-20-42.1-77.59-166.42-137.32-162.15C611.86,431,611.3,493,685.4,642.33a17.11,17.11,0,0,0,21.15,8.49Z" class="b223bfb6-df8c-49fc-ab60-cb7cd84991c2"></path><path d="M315.93,250.67s-46.94-38.4-51.2-21.34c-5.58,22.29,16.06,17.07,25.6,17.07C307.39,246.4,315.93,250.67,315.93,250.67Z" class="e9cf6743-9405-4459-8823-b5597cfe844b"></path><path d="M315.92,252.8a2.09,2.09,0,0,1-.94-.22c-.08,0-8.4-4.05-24.65-4.05-1.36,0-3,.11-4.71.23-7.36.5-16.52,1.12-21.23-4.5-2.9-3.47-3.47-8.52-1.73-15.44a7.32,7.32,0,0,1,4.89-5.52c12.66-4.19,46,22.64,49.73,25.71a2.14,2.14,0,0,1-1.36,3.79Zm-25.59-8.53a87.75,87.75,0,0,1,15.52,1.29c-13.46-9.9-30.61-20.3-37-18.21a3.07,3.07,0,0,0-2.09,2.5c-1.36,5.43-1.07,9.36.86,11.67,3.31,4,11.62,3.39,17.68,3C287.18,244.38,288.89,244.27,290.33,244.27Z" class="b223bfb6-df8c-49fc-ab60-cb7cd84991c2"></path><path d="M405.53,218.67a2.13,2.13,0,0,1-1.68-.82c-.46-.58-46.47-58.36-83-46.23a2.13,2.13,0,1,1-1.35-4c39.36-13.14,85.73,45.15,87.68,47.63a2.13,2.13,0,0,1-1.67,3.46Z" class="b223bfb6-df8c-49fc-ab60-cb7cd84991c2"></path><path d="M357.11,176a2.14,2.14,0,0,1-2-1.34c-.22-.56-5.39-13.7-1.46-22.2a11.49,11.49,0,0,1,7-6.22,2.13,2.13,0,0,1,1.35,4,7.22,7.22,0,0,0-4.5,4c-3.17,6.82,1.5,18.71,1.54,18.82a2.13,2.13,0,0,1-1.19,2.78A2.21,2.21,0,0,1,357.11,176Z" class="b223bfb6-df8c-49fc-ab60-cb7cd84991c2"></path><path d="M354.32,201.6a2.17,2.17,0,0,1-1.18-.36,2.14,2.14,0,0,1-.59-3c9.39-14.08,31.5-5.44,32.44-5.06a2.13,2.13,0,0,1-1.59,4c-.19-.08-19.83-7.73-27.3,3.47A2.13,2.13,0,0,1,354.32,201.6Z" class="b223bfb6-df8c-49fc-ab60-cb7cd84991c2"></path><rect height="1024" width="1024" class="ace61181-e177-4c87-a699-34d3a2e0d09a"></rect><path d="M444.32,236.21c-10.38,0-18.06-2.57-22.91-7.69-6.69-7.06-5.25-16.22-5.19-16.6a2.13,2.13,0,0,1,4.21.69c0,.07-1.12,7.52,4.12,13S439,233,452.22,231.48a2.13,2.13,0,1,1,.48,4.24A76,76,0,0,1,444.32,236.21Z" class="bf8c2d65-1ac3-4cfa-82e8-132c83c30f1d"></path><path d="M473.79,231.47a2.14,2.14,0,0,1,0-4.27c.17,0,16.88,0,29.2-4.16a2.13,2.13,0,0,1,1.35,4.05C491.36,231.42,474.5,231.47,473.79,231.47Z" class="bf8c2d65-1ac3-4cfa-82e8-132c83c30f1d"></path><rect height="1024" width="1024" class="ace61181-e177-4c87-a699-34d3a2e0d09a"></rect></svg>