<svg viewBox="0 0 1024 1024" xmlns="http://www.w3.org/2000/svg" id="b66d9ae2-c4d4-483f-b081-3bd8998520a7"><defs><style>.fc0106ae-33a2-45a2-86e9-c00c79848553{fill:#e61f19;opacity:0.2;}.aa85286e-0fde-481c-ae47-4b7b72615b3d{fill:none;}.b2e43ed8-054e-4c5c-bdbd-23c24f7f38a0{fill:#fff;}.fea9dccd-895d-4610-9d86-8c29a4899f83{fill:#040000;}.ad8b57e3-16f7-463c-af0a-67881a7c614b{fill:#231815;}</style></defs><title>党建1024px尺寸</title><path d="M837.73,599.12c-34.06-51.78-53-105.94-6.87-232.86,18.91-52.09-7.66-114.59-62.2-161.61l-35.54,32.29a6.4,6.4,0,0,1-8.61-9.48l34.12-31a289,289,0,0,0-66.3-38.54l-21.75,40.46a6.4,6.4,0,1,1-11.27-6.06l21-39.11c-93-34.26-216-28.1-337.15,65.84-264.5,205.11-200.7,380.11-170,411.43,17.67,18,32,37.77,38.56,59.56,5,16.43,6.11,33.7,4.71,50.83-13.1,161.26,444.81,92.85,540.06,77.83C885.84,798.32,866.69,643.15,837.73,599.12Z" class="fc0106ae-33a2-45a2-86e9-c00c79848553"></path><rect height="1024" width="1024" class="aa85286e-0fde-481c-ae47-4b7b72615b3d"></rect><polygon points="748.65 902.58 636.91 905.55 264.3 904.1 282.18 845.36 282.18 709.14 741.84 714.73 748.65 902.58" class="b2e43ed8-054e-4c5c-bdbd-23c24f7f38a0"></polygon><path d="M365.77,757.58H247.83c-18.61,0-32.15-16.14-27.12-32.45C239,665.77,264.3,543.74,398,537.2c131.62-6.45,330.74-48.52,344.87,191.43" class="b2e43ed8-054e-4c5c-bdbd-23c24f7f38a0"></path><path d="M365.77,759.71H247.83a31.13,31.13,0,0,1-25.12-12.23,25.6,25.6,0,0,1-4-23c1.36-4.42,2.76-9.18,4.25-14.23,18.6-63.23,49.73-169.07,175-175.21,13.48-.66,27.49-1.68,42.32-2.76,84.64-6.17,180.59-13.16,242.81,41.36,37.5,32.86,57.77,83.51,62,154.84a2.14,2.14,0,0,1-2,2.26,2.16,2.16,0,0,1-2.25-2c-4.13-70.13-23.93-119.81-60.52-151.88-60.87-53.35-155.88-46.42-239.68-40.31-14.87,1.08-28.9,2.1-42.43,2.77-122.25,6-152.85,110-171.13,172.15-1.49,5.06-2.9,9.84-4.27,14.28A21.42,21.42,0,0,0,226.14,745a26.87,26.87,0,0,0,21.69,10.5H365.77a2.13,2.13,0,1,1,0,4.26Z" class="fea9dccd-895d-4610-9d86-8c29a4899f83"></path><rect rx="6.96" height="168.71" width="274.3" y="280.45" x="577.18" class="fea9dccd-895d-4610-9d86-8c29a4899f83"></rect><rect rx="28.71" height="168.71" width="274.3" y="269.04" x="564.83" class="b2e43ed8-054e-4c5c-bdbd-23c24f7f38a0"></rect><path d="M809.44,439.88H594.53a31.87,31.87,0,0,1-31.83-31.83V298.74a31.87,31.87,0,0,1,31.83-31.83H809.44a31.87,31.87,0,0,1,31.83,31.83V408.05A31.87,31.87,0,0,1,809.44,439.88ZM594.53,271.17A27.6,27.6,0,0,0,567,298.74V408.05a27.6,27.6,0,0,0,27.56,27.57H809.44A27.6,27.6,0,0,0,837,408.05V298.74a27.6,27.6,0,0,0-27.56-27.57Z" class="fea9dccd-895d-4610-9d86-8c29a4899f83"></path><rect rx="2.59" height="22.12" width="92.08" y="257.42" x="655.94" class="fea9dccd-895d-4610-9d86-8c29a4899f83"></rect><path d="M522.57,308.5a2.14,2.14,0,0,1-1.57-.68c-.17-.19-16.74-18.52-3.45-37.12a25.08,25.08,0,0,1,5.59-5.82c.2-.82.43-1.64.69-2.47,3.14-10,10.91-21.4,23.31-23.52a2.13,2.13,0,1,1,.72,4.2c-10,1.72-16.58,10.92-19.55,19.38a11.61,11.61,0,0,1,6.09.26c7,2.22,11.41,10.36,11.45,16.63,0,4.74-2.29,8.23-6.34,9.57-6.86,2.27-11,.12-13.19-2.08-3.21-3.16-4.69-8.62-4.29-15-.36.45-.69.89-1,1.33-11.26,15.75,2.53,31.1,3.12,31.74a2.13,2.13,0,0,1-1.57,3.58Zm4.35-41c-1.42,7-.55,13.39,2.4,16.29,2,2,5,2.35,8.86,1.07,2.83-.94,3.41-3.51,3.4-5.5,0-4.69-3.51-11-8.47-12.59A7.64,7.64,0,0,0,526.92,267.52Z" class="fea9dccd-895d-4610-9d86-8c29a4899f83"></path><path transform="translate(1129.67 962.02) rotate(180)" d="M557.95,456.15h19.33A14.81,14.81,0,0,1,592.09,471v20.09a14.81,14.81,0,0,1-14.81,14.81H557.95a20.37,20.37,0,0,1-20.37-20.37v-9a20.37,20.37,0,0,1,20.37-20.37Z" class="b2e43ed8-054e-4c5c-bdbd-23c24f7f38a0"></path><path d="M568.4,508H537.58a2.13,2.13,0,0,1-2.13-2.13V456.15a2.13,2.13,0,0,1,2.13-2.13H568.4a25.85,25.85,0,0,1,25.82,25.82v2.34A25.85,25.85,0,0,1,568.4,508Zm-28.69-4.26H568.4A21.59,21.59,0,0,0,590,482.18v-2.34a21.57,21.57,0,0,0-21.55-21.55H539.71Z" class="fea9dccd-895d-4610-9d86-8c29a4899f83"></path><path d="M563.8,488.08s1.63-5.6,13.38-12.81" class="b2e43ed8-054e-4c5c-bdbd-23c24f7f38a0"></path><path d="M563.8,490.2a2.3,2.3,0,0,1-.63-.1,2.12,2.12,0,0,1-1.42-2.61c.19-.66,2.21-6.62,14.32-14a2.13,2.13,0,0,1,2.23,3.64c-10.66,6.54-12.45,11.58-12.46,11.63A2.17,2.17,0,0,1,563.8,490.2Z" class="fea9dccd-895d-4610-9d86-8c29a4899f83"></path><path d="M394,386H564.83a0,0,0,0,1,0,0v195.3a19.34,19.34,0,0,1-19.34,19.34H413.34A19.34,19.34,0,0,1,394,581.27V386A0,0,0,0,1,394,386Z" class="b2e43ed8-054e-4c5c-bdbd-23c24f7f38a0"></path><path d="M482.33,602.74H476.5a84.73,84.73,0,0,1-84.63-84.64V386a2.13,2.13,0,0,1,2.13-2.13H564.83A2.13,2.13,0,0,1,567,386V518.1A84.74,84.74,0,0,1,482.33,602.74ZM396.13,388.1v130a80.46,80.46,0,0,0,80.37,80.37h5.83A80.46,80.46,0,0,0,562.7,518.1v-130Z" class="fea9dccd-895d-4610-9d86-8c29a4899f83"></path><path d="M363.5,475.27h27.11a3.39,3.39,0,0,1,3.39,3.39V521.6a3.39,3.39,0,0,1-3.39,3.39H365.2a25.71,25.71,0,0,1-25.71-25.71v0A24,24,0,0,1,363.5,475.27Z" class="b2e43ed8-054e-4c5c-bdbd-23c24f7f38a0"></path><path d="M394,527.12H363.18a25.85,25.85,0,0,1-25.82-25.82V499a25.85,25.85,0,0,1,25.82-25.82H394a2.13,2.13,0,0,1,2.13,2.13V525A2.13,2.13,0,0,1,394,527.12ZM363.18,477.4A21.58,21.58,0,0,0,341.63,499v2.34a21.58,21.58,0,0,0,21.55,21.55h28.69V477.4Z" class="fea9dccd-895d-4610-9d86-8c29a4899f83"></path><path d="M335.23,816C376.69,728.63,430,657.22,441.5,645.75c.26-.25.51-.51.75-.77,8.17-8.66,5.23-17.78-6.22-21.08-33.08-9.56-47.39-49.22-47.39-61.74,0-6.9,3.65-8.43,7.31-8.23a10.91,10.91,0,0,1,9,6.19c9.67,19.49,38.26,38.49,71.52,40.49,24,1.44,17.94,29,11,45.19a302.94,302.94,0,0,0-14.95,45.33c-16.18,64.59-60.63,212.21-129,212.21-65.62,0-71.89-97.31-70.92-146l93.1.2" class="b2e43ed8-054e-4c5c-bdbd-23c24f7f38a0"></path><path d="M343.59,905.47c-16,0-29.71-5.67-40.68-16.86-29.83-30.43-33.09-95.31-32.38-131.27a2.12,2.12,0,0,1,2.13-2.09h0l91.84.19C399,695.09,432.39,651.85,440,644.25l.7-.72c3.32-3.52,4.67-7.17,3.82-10.29s-4.12-5.86-9.07-7.29c-33.89-9.79-48.93-50.11-48.93-63.79,0-3.67.95-6.44,2.83-8.22a8.66,8.66,0,0,1,6.73-2.14,13,13,0,0,1,10.82,7.37c8.93,18,35.75,37.26,69.74,39.31,7.44.44,12.82,3.27,16,8.41,7.59,12.3-.48,33.53-3.13,39.75a298,298,0,0,0-14.86,45C458.54,755.94,413.54,905.47,343.59,905.47Zm-68.83-146c-.53,35.66,3,97.35,31.2,126.11,10.13,10.33,22.79,15.58,37.63,15.58,66.94,0,111.06-147.28,126.92-210.6A301.64,301.64,0,0,1,485.57,645c5.05-11.82,8.61-27.44,3.43-35.82-2.44-3.95-6.57-6-12.62-6.4-35.62-2.15-63.84-22.59-73.31-41.67a8.79,8.79,0,0,0-7.24-5,4.67,4.67,0,0,0-3.56,1c-1,.94-1.5,2.67-1.5,5.12,0,11.2,13.8,50.43,45.85,59.69,6.44,1.86,10.71,5.51,12,10.27,1.25,4.6-.46,9.69-4.83,14.33l-.79.81c-7.55,7.55-40.9,50.74-75.26,111.09a1.78,1.78,0,0,1-.3.54c-10.23,18-20.55,37.52-30.3,58.07a2.13,2.13,0,0,1-3.85-1.83c9.26-19.53,19.05-38.14,28.8-55.43Z" class="fea9dccd-895d-4610-9d86-8c29a4899f83"></path><path d="M204.44,910.86a2.13,2.13,0,0,1-.15-4.26c99.86-7.05,102.54-6.93,147.24-5.08,20.58.85,48.78,2,98.72,3.08,131.17,2.77,386.24-7.16,388.8-7.26a2.13,2.13,0,1,1,.17,4.26c-2.56.1-257.76,10-389.06,7.26-50-1.05-78.2-2.22-98.81-3.08-44.47-1.84-47.14-2-146.76,5.07Z" class="fea9dccd-895d-4610-9d86-8c29a4899f83"></path><path d="M532.42,446.14a35.54,35.54,0,0,1-5.59-.4,2.14,2.14,0,0,1,.73-4.21c.15,0,15.07,2.47,24.15-6.61a2.14,2.14,0,0,1,3,3C547.78,444.88,538.35,446.14,532.42,446.14Z" class="fea9dccd-895d-4610-9d86-8c29a4899f83"></path><path d="M462.83,451.3c-7.09,0-15.6-1.36-21.12-6.88a2.14,2.14,0,0,1,3-3c9.06,9.07,29.51,4.47,29.71,4.42a2.13,2.13,0,1,1,1,4.16A60.7,60.7,0,0,1,462.83,451.3Z" class="fea9dccd-895d-4610-9d86-8c29a4899f83"></path><circle r="6.23" cy="499.6" cx="474.92" class="fea9dccd-895d-4610-9d86-8c29a4899f83"></circle><circle r="6.23" cy="496.79" cx="546.99" class="fea9dccd-895d-4610-9d86-8c29a4899f83"></circle><path d="M496,567.82c-4.77,0-5.91-1.87-6.44-2.72-1.51-2.46-.79-5.7,1.87-8.44,4.57-4.72,13.55-7,21.86-2.24a5.2,5.2,0,0,1,2.6,5,5.37,5.37,0,0,1-3.57,4.64h0C504.48,566.91,499.37,567.82,496,567.82ZM503.7,556a13.11,13.11,0,0,0-9.17,3.59c-1.2,1.24-1.72,2.54-1.29,3.24s4.63,1.88,17.69-2.81h0a1.12,1.12,0,0,0,.75-1,.93.93,0,0,0-.47-.94A15,15,0,0,0,503.7,556Z" class="ad8b57e3-16f7-463c-af0a-67881a7c614b"></path><path d="M649.29,726.29c-1,0-2.15,0-3.28-.13-27.54-2.11-33.6-31.88-34.42-36.87L580,654.64a2.13,2.13,0,0,1,3.15-2.87l32.07,35.13a2.08,2.08,0,0,1,.54,1.17c.16,1.3,4.21,31.82,30.62,33.84,7.53.58,12.9-1,16-4.56,4.74-5.53,2.76-14.27,2.74-14.36a2.13,2.13,0,0,1,1.43-2.52c4.31-1.37,6.88-3.32,7.62-5.8,1.16-3.86-2.27-8.17-2.3-8.22a2.12,2.12,0,0,1-.2-2.38,2.09,2.09,0,0,1,2.14-1.07c2.55.33,4.21-2.19,4.83-4.45,1.75-6.39-2-15.68-14.4-20.95-23.55-10-37,6.6-37.08,6.78a2.13,2.13,0,0,1-2.55.63l-38.12-16.88a2.13,2.13,0,0,1,1.73-3.9l36.72,16.26c4-4.11,18.53-16.36,41-6.82,14.75,6.28,19.07,17.88,16.85,26-1,3.51-3.07,6-5.7,7.09,1.15,2.31,2.23,5.68,1.2,9.11s-4,6.21-8.67,8c.44,3.43.67,10.79-4,16.21C662.05,724.22,656.59,726.29,649.29,726.29Z" class="fea9dccd-895d-4610-9d86-8c29a4899f83"></path><path d="M629.34,646a2,2,0,0,1-.67-.11l-35.68-12a2.14,2.14,0,0,1,1.36-4l35.67,12a2.13,2.13,0,0,1-.68,4.15Z" class="fea9dccd-895d-4610-9d86-8c29a4899f83"></path><path d="M596.87,691.64a2.11,2.11,0,0,1-1.66-.8L572,662a2.13,2.13,0,1,1,3.32-2.67l23.23,28.83a2.14,2.14,0,0,1-1.66,3.47Z" class="fea9dccd-895d-4610-9d86-8c29a4899f83"></path><path d="M637.78,702.77a2.14,2.14,0,0,1-.26-4.26c3.76-.45,6.43-1.81,8-4,2.54-3.71,1.29-8.81,1.28-8.86a2.14,2.14,0,0,1,2.31-2.65c2.49.3,4.34-.15,5.51-1.33,2.26-2.3,1.75-6.79,1.75-6.83a2.13,2.13,0,1,1,4.23-.55c0,.26.8,6.58-2.95,10.38a9.33,9.33,0,0,1-6.31,2.67,15.17,15.17,0,0,1-2.28,9.55c-2.25,3.3-5.94,5.28-11,5.89Z" class="fea9dccd-895d-4610-9d86-8c29a4899f83"></path><path d="M666.46,634A10.08,10.08,0,1,1,676.53,624,10.09,10.09,0,0,1,666.46,634Zm0-15.88a5.81,5.81,0,1,0,5.8,5.8A5.81,5.81,0,0,0,666.46,618.15Z" class="fea9dccd-895d-4610-9d86-8c29a4899f83"></path><path d="M573.64,696.36a5.46,5.46,0,1,1,5.46-5.45A5.45,5.45,0,0,1,573.64,696.36Zm0-6.64a1.19,1.19,0,1,0,1.19,1.19A1.19,1.19,0,0,0,573.64,689.72Z" class="fea9dccd-895d-4610-9d86-8c29a4899f83"></path><path d="M377.82,364.93a2.14,2.14,0,0,1-2.06-1.57c-2.07-7.53-8.61-14.28-16.08-18.69,1.17,9.92-3.49,14.77-6.69,16.89-6.41,4.26-16.27,3.78-22.43-1.09-4.68-3.7-6.16-9.13-4-14.9,2.61-7.1,8.71-10.8,17.25-10.46a34.27,34.27,0,0,1,9.61,1.94c-2.59-7-6.59-11.93-11.92-14.7-9.81-5.09-20.94-1.19-21-1.15a2.14,2.14,0,1,1-1.44-4c.53-.19,13-4.55,24.46,1.38,7.22,3.75,12.31,10.7,15.13,20.66,9.69,4.77,18.62,13.21,21.32,23a2.14,2.14,0,0,1-1.49,2.62A2.24,2.24,0,0,1,377.82,364.93ZM342.7,339.35c-4.46,0-9.87,1.43-12.17,7.69-1.88,5.1.42,8.3,2.68,10.08,4.72,3.73,12.54,4.13,17.42.89,4.43-2.94,5.93-8.5,4.3-15.77a32.39,32.39,0,0,0-11.34-2.87Z" class="fea9dccd-895d-4610-9d86-8c29a4899f83"></path><path d="M254.69,511.73a2.12,2.12,0,0,1-1.6-.72l-16.71-18.94a2.13,2.13,0,1,1,3.2-2.82l16.71,18.93a2.13,2.13,0,0,1-1.6,3.55Z" class="fea9dccd-895d-4610-9d86-8c29a4899f83"></path><path d="M238,511.73a2.13,2.13,0,0,1-1.6-3.55l16.71-18.93a2.13,2.13,0,0,1,3.2,2.82L239.58,511A2.12,2.12,0,0,1,238,511.73Z" class="fea9dccd-895d-4610-9d86-8c29a4899f83"></path><path d="M855.53,665.93a2.13,2.13,0,0,1-2-1.36l-14-36a2.14,2.14,0,1,1,4-1.55l14,36a2.13,2.13,0,0,1-1.21,2.76A2.16,2.16,0,0,1,855.53,665.93Z" class="fea9dccd-895d-4610-9d86-8c29a4899f83"></path><path d="M832.63,658.92a2.13,2.13,0,0,1-1.22-3.88l31.77-22a2.13,2.13,0,1,1,2.43,3.51l-31.77,22A2.09,2.09,0,0,1,832.63,658.92Z" class="fea9dccd-895d-4610-9d86-8c29a4899f83"></path><path d="M885.84,550.9a20.56,20.56,0,1,1,20.55-20.55A20.58,20.58,0,0,1,885.84,550.9Zm0-36.84a16.29,16.29,0,1,0,16.28,16.29A16.3,16.3,0,0,0,885.84,514.06Z" class="fea9dccd-895d-4610-9d86-8c29a4899f83"></path><path d="M808.91,513.55c-4.78,0-9.18-3.36-13.08-10-3.08-5.24-6.24-8-9.13-8.08h-.06c-3.64,0-6.74,4.3-7.9,6.16a29.16,29.16,0,0,1-6.45,7.59c-7.45,5.85-15.35,4.85-21.69-2.76-3.14-3.77-6.14-5.68-8.91-5.68h0c-2.75,0-4.93,1.92-6.26,3.52-3,3.58-5.89,5.9-8.89,7.09-4.3,1.71-10.75,2.37-17-4.22-2.5-2.6-5-3.78-7.57-3.58-4.91.44-8.62,6-8.65,6a2.13,2.13,0,0,1-3.57-2.33c.19-.3,4.84-7.3,11.81-7.95,3.89-.37,7.61,1.28,11.06,4.88,3.74,3.91,7.91,5,12.39,3.21,2.33-.93,4.68-2.84,7.19-5.86,1.92-2.3,5.14-5.05,9.54-5.05h0c4.1,0,8.2,2.42,12.19,7.21,4.92,5.91,10.08,6.61,15.77,2.14a25.11,25.11,0,0,0,5.48-6.51c1.93-3.08,6-8.14,11.63-8.16,4.53.07,8.82,3.5,12.75,10.19,3.08,5.23,6.24,7.88,9.4,7.88H809c4.57,0,8.75-5.74,10-7.93a2.14,2.14,0,0,1,3.73,2.08c-.23.41-5.68,10-13.65,10.12Z" class="fea9dccd-895d-4610-9d86-8c29a4899f83"></path><path d="M131.65,591.75h-.12c-8-.09-13.42-9.71-13.65-10.12a2.14,2.14,0,0,1,3.73-2.08c1.23,2.19,5.42,7.89,10,7.94h.06c3.16,0,6.32-2.66,9.4-7.89,3.94-6.69,8.22-10.12,12.75-10.18,5.74-.07,9.7,5.07,11.63,8.15a25.29,25.29,0,0,0,5.47,6.51c5.7,4.48,10.86,3.78,15.78-2.13,4-4.79,8.09-7.22,12.2-7.22,4.4,0,7.62,2.75,9.54,5.06,2.52,3,4.87,4.93,7.19,5.85,4.48,1.78,8.65.7,12.39-3.2,3.45-3.6,7.16-5.23,11.05-4.88,7,.64,11.63,7.64,11.82,7.94a2.13,2.13,0,0,1-3.57,2.34c0-.06-3.74-5.59-8.65-6-2.52-.24-5.07,1-7.56,3.59-6.31,6.58-12.76,5.92-17.06,4.22-3-1.2-5.91-3.52-8.89-7.1-1.33-1.6-3.51-3.51-6.26-3.51s-5.78,1.91-8.92,5.67c-6.33,7.61-14.24,8.62-21.69,2.77a29.42,29.42,0,0,1-6.45-7.6c-1.17-1.86-4.26-6.16-7.9-6.16h-.06c-2.89,0-6.05,2.84-9.13,8.08C140.83,588.39,136.43,591.75,131.65,591.75Z" class="fea9dccd-895d-4610-9d86-8c29a4899f83"></path><path d="M493.05,627.2c52.35-11.86,39.53-43.68,39.53-43.68s9.88-7.61,14.92-14.86c0,0,30.92,70.27-60,77.14Z" class="fea9dccd-895d-4610-9d86-8c29a4899f83"></path><path d="M264.3,906.23a2.27,2.27,0,0,1-.62-.09,2.13,2.13,0,0,1-1.42-2.66l17.88-58.74a2.14,2.14,0,0,1,4.09,1.24l-17.89,58.74A2.13,2.13,0,0,1,264.3,906.23Z" class="fea9dccd-895d-4610-9d86-8c29a4899f83"></path><circle r="13.69" cy="317.6" cx="264.3" class="b2e43ed8-054e-4c5c-bdbd-23c24f7f38a0"></circle><path d="M264.3,333.43a15.83,15.83,0,1,1,15.83-15.83A15.84,15.84,0,0,1,264.3,333.43Zm0-27.39a11.56,11.56,0,1,0,11.56,11.56A11.58,11.58,0,0,0,264.3,306Z" class="fea9dccd-895d-4610-9d86-8c29a4899f83"></path><path d="M394,507.52a2.1,2.1,0,0,1-1.56-.69c-12.13-13.09-23.91-5.76-24.41-5.44a2.13,2.13,0,1,1-2.3-3.59c.14-.09,15.32-9.54,29.83,6.13a2.13,2.13,0,0,1-1.56,3.59Z" class="fea9dccd-895d-4610-9d86-8c29a4899f83"></path><rect height="175.11" width="257.08" y="728.63" x="582.05" class="fea9dccd-895d-4610-9d86-8c29a4899f83"></rect><rect height="25.99" width="317.35" y="879.56" x="521.79" class="fea9dccd-895d-4610-9d86-8c29a4899f83"></rect><path d="M637.74,303.58c-22.5,12.82-36.69,41.17-26.37,66.38,10.8,26.38,42.09,25.26,64.88,16.47,22-8.5,47.87-29.82,51.56-54.68,1.4-9.44-3.66-16.83-13.43-17.65C701.13,313,686,322,676,329.69c-8.7,6.68-18.43,16.54-16.26,28.58,2.13,11.88,15.32,22.19,24.89,28.18,17.84,11.16,53.11,21,67.93.11,7.18-10.15,7.05-23.41,2.61-34.61-3.82-9.61-12-23.43-22.06-27.63-20.77-8.64-45.19,27-34.69,45,13.92,23.84,53.38.19,58.08-19.68.79-3.33,1.67-8.85-.83-11.52-3.82-4.09-13.56-3-18.17-1.73-14.12,4-21.32,17.35-25.56,30.36a2.13,2.13,0,0,0,.55,2.08l4.66,4.52a2.12,2.12,0,0,0,2.08.55c13.14-5.12,26.88-12,32.77-25.73,5.37-12.48,2.42-19.34-11.45-20.58-14.34-1.27-26.63,7.22-35.92,17.27-8.89,9.62-19.88,21.59-16.84,35.62a2.19,2.19,0,0,0,2.62,1.49c22.5-3.84,47.39-17.94,56.8-39.88,7.3-17-3.9-33.49-22.16-34.93-23.23-1.83-43.77,21-54.43,39-7.91,13.37-18,38.29,2.56,45.7,8.36,3,17.77,1.24,26.19-.49,14-2.87,27.8-6.87,40.66-13.09,20.15-9.75,37.82-25.85,45.32-47.4,2.36-6.78,6.32-19.93,2.26-26.84-4.17-7.1-10.23-.92-14,3.4-15.52,17.76-18.16,42.57-14.41,65,1.57,9.39,3.44,25.26,12.19,31.47,6.91,4.92,13.31.66,17.33-5.48,6.25-9.56,8.47-22.16,6.68-33.35-1.11-7-5.18-15.74-13.39-11-2.37,1.37-.22,5.06,2.16,3.68,7.29-4.22,7.64,14.95,7.46,17.75-.37,5.59-1.81,13.09-5,17.88q-3.48,8.93-15.74,3.64a27.25,27.25,0,0,1-3.13-7,114.83,114.83,0,0,1-3.78-15c-4-20.21-3-42.38,9-59.89,2.52-3.69,11.51-14.88,11.55-3.39a52.5,52.5,0,0,1-2.32,14.92,70.29,70.29,0,0,1-15.09,26.47c-13.14,14.77-31.37,23.67-50,29.3-14.37,4.34-53.26,16.82-52-10.48.9-19.32,19.06-40.57,33.82-51.41,8.86-6.51,20-11.55,31.15-8.24,16.18,4.8,18.44,20.75,10,33.9-11.21,17.39-30.75,28.14-50.75,31.55l2.62,1.49c-2.81-13,9.89-25.74,18.25-34.08,7.62-7.59,27.94-21.19,38-10.15,9.56,10.55-12.59,26.72-21,30.87-18.85,9.25-3.91-15.55,2.62-20.71,3.78-3,19.43-10.79,23.16-2.22,2.31,5.31-4.33,14.37-7.64,17.94-7.8,8.42-21.64,15.71-33.47,12.93-18.31-4.3-11.37-25.29-2.85-35.15,3.87-4.48,9.07-10.09,15.12-11.17,10-1.77,17.21,8.71,21.67,15.51,14.51,22.14,8.83,51.52-21.88,50.89-20.7-.42-46.54-11.36-57.12-30.22-8.61-15.35,6.72-28,18.59-35.38,9.6-6,39.07-21.05,38.16,3.81-.31,8.49-9.19,19.85-14.5,26a86.54,86.54,0,0,1-23.24,19c-19.1,10.75-54,19.21-67.79-3.72-14.26-23.72-.25-53.64,22-66.31,2.39-1.36.24-5-2.15-3.68Z" class="fea9dccd-895d-4610-9d86-8c29a4899f83"></path><path d="M592,380.52a43.23,43.23,0,0,0-42.39-52c-.28,0-.56,0-.84,0-47.62-47.62-97.17-11.17-97.17-11.17-1-.07-2-.15-3-.15a41.53,41.53,0,0,0-31.19,14.1c-14.6.32-26.59,9.53-28.88,21.56-19.95,5.66-32.39,25.36-32.39,45.27a38.24,38.24,0,0,0,.62,6.54c-.2.09-.42.17-.62.27,0,0-11.57,11.85-11.57,29.45,0,17.22,5.21,45.45,5.21,45.45s42.09-14.28,42.09,25.51l21.17-4.52s-.35-22.18,4.75-42c1.62.14,3.27.22,4.94.22,25.5,0,47.8-10,49.65-32,8.79,10.73,21.58,10.29,37.73,10.29,15.38,0,29-6.38,37.87-16.25a29.92,29.92,0,1,0,44-40.54Z" class="fea9dccd-895d-4610-9d86-8c29a4899f83"></path><path d="M494.39,396.66c-19.4,0-39.61-8.19-40.89-8.72a2.13,2.13,0,1,1,1.63-3.94c.45.18,45.46,18.41,63.41.46a2.14,2.14,0,0,1,3,3C514.66,394.38,504.64,396.66,494.39,396.66Z" class="b2e43ed8-054e-4c5c-bdbd-23c24f7f38a0"></path><path d="M534,379.7a2.14,2.14,0,0,1-1.32-3.81c.07-.06,7.5-6,9.49-11.78a2.14,2.14,0,0,1,4,1.39c-2.4,7-10.54,13.46-10.89,13.74A2.12,2.12,0,0,1,534,379.7Z" class="b2e43ed8-054e-4c5c-bdbd-23c24f7f38a0"></path><path d="M239.68,818.45s.5,13.51,9.41,22.42" class="fea9dccd-895d-4610-9d86-8c29a4899f83"></path><path d="M249.09,843a2.09,2.09,0,0,1-1.51-.62c-9.4-9.39-10-23.27-10-23.86a2.15,2.15,0,0,1,2.05-2.21,2.27,2.27,0,0,1,2.22,2.05c0,.13.6,12.82,8.78,21a2.12,2.12,0,0,1,0,3A2.09,2.09,0,0,1,249.09,843Z" class="ad8b57e3-16f7-463c-af0a-67881a7c614b"></path><path d="M241,854.11a2.14,2.14,0,0,1-1.51-.63c-18.11-18.11-19.3-44.92-19.35-46.06a2.15,2.15,0,0,1,2.05-2.21,2.1,2.1,0,0,1,2.22,2c0,.27,1.2,26.3,18.1,43.2a2.14,2.14,0,0,1,0,3A2.12,2.12,0,0,1,241,854.11Z" class="ad8b57e3-16f7-463c-af0a-67881a7c614b"></path><circle r="26.83" cy="816.18" cx="710.59" class="b2e43ed8-054e-4c5c-bdbd-23c24f7f38a0"></circle><path d="M204.44,708.11A2.14,2.14,0,0,1,202.3,706c0-17.72,11.22-31.65,11.7-32.23a2.13,2.13,0,1,1,3.3,2.7c-.1.13-10.73,13.37-10.73,29.53A2.13,2.13,0,0,1,204.44,708.11Z" class="ad8b57e3-16f7-463c-af0a-67881a7c614b"></path><path d="M189.29,711.27a2.14,2.14,0,0,1-2.12-1.88c-.19-1.65-4.44-40.45,21.85-54.79a2.13,2.13,0,1,1,2,3.74c-23.78,13-19.69,50.18-19.65,50.55a2.14,2.14,0,0,1-1.87,2.37Z" class="ad8b57e3-16f7-463c-af0a-67881a7c614b"></path><path d="M389.63,720h-.2a2.13,2.13,0,0,1-1.93-2.32c3.29-36.16-16.52-70.35-16.72-70.69a2.13,2.13,0,1,1,3.68-2.16c.85,1.44,20.7,35.68,17.29,73.24A2.13,2.13,0,0,1,389.63,720Z" class="ad8b57e3-16f7-463c-af0a-67881a7c614b"></path><path d="M466.18,517.85a26.92,26.92,0,1,1,26.91-26.91A27,27,0,0,1,466.18,517.85Zm0-49.56a22.65,22.65,0,1,0,22.64,22.65A22.67,22.67,0,0,0,466.18,468.29Z" class="fea9dccd-895d-4610-9d86-8c29a4899f83"></path><path d="M539,515a26.91,26.91,0,1,1,26.91-26.91A26.94,26.94,0,0,1,539,515Zm0-49.55a22.65,22.65,0,1,0,22.65,22.64A22.67,22.67,0,0,0,539,465.44Z" class="fea9dccd-895d-4610-9d86-8c29a4899f83"></path><path d="M492.08,492.75l-2.25-3.63c.63-.39,15.55-9.47,26.71.2l-2.79,3.23C505,484.93,492.21,492.67,492.08,492.75Z" class="fea9dccd-895d-4610-9d86-8c29a4899f83"></path><rect transform="translate(-192.79 663.36) rotate(-64.96)" height="37.02" width="4.27" y="464.59" x="422.5" class="fea9dccd-895d-4610-9d86-8c29a4899f83"></rect><path d="M457.36,526.6a2.59,2.59,0,0,1-.47-.05l-19.82-4.45a2.13,2.13,0,1,1,.94-4.16l19.82,4.44a2.14,2.14,0,0,1-.47,4.22Z" class="ad8b57e3-16f7-463c-af0a-67881a7c614b"></path><path d="M549.62,522.2a2.13,2.13,0,0,1-1.07-4L561.09,511a2.13,2.13,0,1,1,2.12,3.7l-12.53,7.21A2.13,2.13,0,0,1,549.62,522.2Z" class="ad8b57e3-16f7-463c-af0a-67881a7c614b"></path><path d="M503.75,518.73a10,10,0,0,1-1.44-.11l.08-2.16.4-2.09a4.88,4.88,0,0,0,4.92-2,5.2,5.2,0,0,0,.52-5.41,17.48,17.48,0,0,1-1.58-5.62,2.13,2.13,0,0,1,4.25-.38,13.06,13.06,0,0,0,1.15,4.09,9.43,9.43,0,0,1-.9,9.84A9.17,9.17,0,0,1,503.75,518.73Z" class="ad8b57e3-16f7-463c-af0a-67881a7c614b"></path></svg>