<svg viewBox="0 0 1024 1024" xmlns="http://www.w3.org/2000/svg" id="fc88686d-a9e5-4976-b55c-8734dde65173"><defs><style>.f32c7afb-db53-45d9-bdfd-c657174c9b82{fill:none;}.a52762e9-bb8b-49c2-b4a6-5f54253a587a{fill:#e61f19;opacity:0.2;}.bc8e365e-74bc-44fc-a905-6c2d0dbb6d61{fill:#231815;}.a55db3f3-5fa4-447f-a54b-88c775847ec5{fill:#040000;}.eea072ea-2097-4901-8a1e-ce02f4ff9efb{fill:#fff;}</style></defs><title>党建1024px尺寸</title><rect height="1024" width="1024" class="f32c7afb-db53-45d9-bdfd-c657174c9b82"></rect><path d="M856.14,689.93a6.4,6.4,0,1,1-2.88-12.47c1.82-.43,34.12-7.56,62,5.88,54.68-57.76,70.42-127.57,16.55-196.64-175.93-225.58,49-149.2-123-347C718.3,35.56,582.27,31.17,468,67.59c4.85,13.46,6.6,29.3.38,46.15a6.39,6.39,0,1,1-12-4.42c5-13.46,3.43-26.43-.68-37.65-97.3,34-176.55,96.77-194.31,150.52-14.7,44.47-49.14,74.34-72.46,94.81-37.17,32.64-76.32,55.15-85.06,115.12-2.77,19-4.48,35.79-4.37,51.44,17.82,2.2,38.3,9.57,51.76,29.75a6.4,6.4,0,0,1-1.78,8.88,6.4,6.4,0,0,1-8.87-1.78c-10.25-15.36-26.11-21.57-40.55-23.75,5.32,66.38,50.2,116.82,200.39,244.44,162.89,138.41,474.62,76.44,605-48C882.33,684.13,856.5,689.84,856.14,689.93Z" class="a52762e9-bb8b-49c2-b4a6-5f54253a587a"></path><path d="M303.88,172.12a17.41,17.41,0,0,1,3.51,7.28c1.9,8.81-3.86,16.47-4.11,16.79a2.13,2.13,0,1,1-3.39-2.59c.05-.07,4.82-6.46,3.33-13.33-1-4.41-4.32-8.19-10-11.23-3.39-1.82-5.88-2.06-7.42-.72-3.77,3.32-3.09,15.78,0,23.89.47,1.26.88,2.24,1.21,3l1.7.65a2.14,2.14,0,0,1,1.33,1.92c.08,3-1.35,3.77-2.21,3.94-1.56.32-2.7-.69-3.94-3.1-1-.36-2.27-.78-3.65-1.21-13.84-4.34-24.23-4.81-28.49-1.3-2,1.64-2.75,4.24-2.33,7.94a14.52,14.52,0,0,0,5.91,10.47c11.52,8.71,35.36,4.89,35.6,4.85a2.13,2.13,0,1,1,.7,4.21c-1,.18-25.88,4.16-38.87-5.65a18.82,18.82,0,0,1-7.58-13.4c-.58-5.18.72-9.12,3.86-11.71,7-5.79,21.53-2.91,32.47.52l.17,0c-2.69-7.36-5-22.75,1.31-28.27,2.07-1.82,5.87-3.27,12.25.16A27.74,27.74,0,0,1,303.88,172.12Z" class="bc8e365e-74bc-44fc-a905-6c2d0dbb6d61"></path><path d="M290.81,241.42a2.12,2.12,0,0,1-1.24,3.42l-64.56,13a2.13,2.13,0,1,1-.84-4.18l64.56-13A2.13,2.13,0,0,1,290.81,241.42Z" class="a55db3f3-5fa4-447f-a54b-88c775847ec5"></path><path d="M317.25,142.2a2.66,2.66,0,0,1,.33.57l11.67,30.69a2.13,2.13,0,0,1-1.23,2.75,2.15,2.15,0,0,1-2.76-1.23l-11.67-30.69a2.13,2.13,0,0,1,3.66-2.09Z" class="a55db3f3-5fa4-447f-a54b-88c775847ec5"></path><path d="M297.85,259.93a2.13,2.13,0,0,1-.16,2.85l-18.27,18.06a2.14,2.14,0,0,1-3,0,2.09,2.09,0,0,1,0-3l18.27-18.07a2.13,2.13,0,0,1,3,0A1.14,1.14,0,0,1,297.85,259.93Z" class="a55db3f3-5fa4-447f-a54b-88c775847ec5"></path><ellipse ry="55.94" rx="215.37" cy="919.06" cx="566.29" class="a55db3f3-5fa4-447f-a54b-88c775847ec5"></ellipse><path d="M566.29,977.13c-122,0-217.51-25.51-217.51-58.07S444.32,861,566.29,861s217.5,25.51,217.5,58.08S688.25,977.13,566.29,977.13Zm0-111.88c-115.59,0-213.24,24.64-213.24,53.81s97.65,53.81,213.24,53.81,213.23-24.64,213.23-53.81S681.87,865.25,566.29,865.25Z" class="a55db3f3-5fa4-447f-a54b-88c775847ec5"></path><path d="M521.56,503.39h69.26a15,15,0,0,1,15,15V916.08a19.06,19.06,0,0,1-19.06,19.06h-45a35.32,35.32,0,0,1-35.32-35.32V518.43A15,15,0,0,1,521.56,503.39Z" class="eea072ea-2097-4901-8a1e-ce02f4ff9efb"></path><path d="M588.67,937.28h-65A19.35,19.35,0,0,1,504.39,918V503.39a2.13,2.13,0,0,1,2.13-2.13h99.34a2.13,2.13,0,0,1,2.13,2.13V918A19.35,19.35,0,0,1,588.67,937.28Zm-80-431.75V918A15.07,15.07,0,0,0,523.71,933h65A15.07,15.07,0,0,0,603.72,918V505.53Z" class="a55db3f3-5fa4-447f-a54b-88c775847ec5"></path><path d="M560,503.39h45.85a0,0,0,0,1,0,0V918.24a16.9,16.9,0,0,1-16.9,16.9H560a0,0,0,0,1,0,0V503.39A0,0,0,0,1,560,503.39Z" class="eea072ea-2097-4901-8a1e-ce02f4ff9efb"></path><path d="M588.67,937.28H560a2.13,2.13,0,0,1-2.13-2.14V503.39a2.13,2.13,0,0,1,2.13-2.13h45.85a2.13,2.13,0,0,1,2.13,2.13V918A19.35,19.35,0,0,1,588.67,937.28ZM562.14,933h26.53A15.07,15.07,0,0,0,603.72,918V505.53H562.14Z" class="a55db3f3-5fa4-447f-a54b-88c775847ec5"></path><path d="M724.54,638c-7.83,0-17-1.54-27.67-5.54-15.85-5.94-17.81-15.1-17-21.16-30.57-8.94-72.33-40-74.54-41.71a2.14,2.14,0,0,1,2.56-3.42c.53.41,43.33,32.31,73,41.09,4.16-11.45,19.06-22.09,27-19.31,2.7.93,6.68,4.09,3.13,14.74A14.85,14.85,0,0,1,701,612.69c-4.63,1.45-10.47,1.15-17-.35-.66,6.76,4.24,12.27,14.38,16.08,43.18,16.19,59.34-9.39,60-10.49a2.13,2.13,0,0,1,3.65,2.2C761.89,620.36,750.94,638,724.54,638ZM685,608.3c5.69,1.3,10.74,1.55,14.69.32a10.68,10.68,0,0,0,7.29-7.33c.83-2.48,2.43-8.35-.47-9.36C701.72,590.28,688.85,598.33,685,608.3Z" class="a55db3f3-5fa4-447f-a54b-88c775847ec5"></path><path d="M664.39,246.91s93.5-17.64,98.79,56.41c5.38,75.32,20.82,154,31.69,202.58a42.44,42.44,0,0,1-38.21,51.53l-62.52,4.81Z" class="a55db3f3-5fa4-447f-a54b-88c775847ec5"></path><path d="M694.14,564.37a2.13,2.13,0,0,1-2.12-1.93L662.27,247.11a2.13,2.13,0,0,1,1.73-2.29c2-.38,49.67-9,79.21,13.72,13.28,10.23,20.72,25.25,22.1,44.63C770.58,377,785.43,453.92,797,505.43a44.57,44.57,0,0,1-40.13,54.12l-62.52,4.81ZM666.71,248.7,696.07,560l60.42-4.65a40.31,40.31,0,0,0,36.3-48.94c-11.56-51.66-26.45-128.78-31.74-202.88-1.29-18.12-8.17-32.1-20.45-41.56C715.78,242.79,675.87,247.34,666.71,248.7Z" class="a55db3f3-5fa4-447f-a54b-88c775847ec5"></path><path d="M384.85,270.7l279.54-23.79a38.43,38.43,0,0,1,41.54,42.2c-6.49,62.79-15,178.16-3.16,273.13L300.67,577.7A38.62,38.62,0,0,1,261,533.24c7-45.72,18.27-117.13,28.72-175.7A105.74,105.74,0,0,1,384.85,270.7Z" class="eea072ea-2097-4901-8a1e-ce02f4ff9efb"></path><path d="M299.16,579.87a40.76,40.76,0,0,1-40.27-47c7.42-48.29,18.43-118,28.73-175.74a108,108,0,0,1,97.05-88.59l.18,2.12-.18-2.12,279.55-23.79a40.55,40.55,0,0,1,43.83,44.54c-6.3,60.9-15.08,177.32-3.16,272.64a2.15,2.15,0,0,1-2,2.4l-402.1,15.46C300.22,579.85,299.69,579.87,299.16,579.87Zm368.53-331c-1,0-2.07,0-3.12.14L385,272.83a103.78,103.78,0,0,0-93.21,85.09c-10.29,57.71-21.3,127.37-28.71,175.64a36.49,36.49,0,0,0,37.48,42l399.78-15.38c-11.55-95.31-2.83-210.7,3.44-271.3a36.3,36.3,0,0,0-36.12-40Z" class="a55db3f3-5fa4-447f-a54b-88c775847ec5"></path><polygon points="314.4 363.74 642.36 337.85 633.73 381 305.77 398.26 314.4 363.74" class="a55db3f3-5fa4-447f-a54b-88c775847ec5"></polygon><path d="M305.77,400.39a2.12,2.12,0,0,1-2.07-2.65l8.63-34.52a2.14,2.14,0,0,1,1.91-1.61l328-25.89a2.14,2.14,0,0,1,2.26,2.55l-8.63,43.15a2.13,2.13,0,0,1-2,1.71l-328,17.26Zm10.33-34.65L308.54,396,632,379l7.75-38.76Z" class="a55db3f3-5fa4-447f-a54b-88c775847ec5"></path><path d="M625.1,363.74s-55.68,138.08-47.73,241.65L219.47,614s47.72-189.87,127.25-233Z" class="eea072ea-2097-4901-8a1e-ce02f4ff9efb"></path><path d="M219.47,616.15a2.14,2.14,0,0,1-2.08-2.65A826,826,0,0,1,251.3,512.88c29.22-70.62,61-115.62,94.41-133.76a2.23,2.23,0,0,1,.88-.25L625,361.61a2.08,2.08,0,0,1,1.86.88,2.12,2.12,0,0,1,.25,2.05c-.55,1.37-55.39,138.81-47.57,240.69a2.16,2.16,0,0,1-.54,1.59,2.14,2.14,0,0,1-1.54.7l-357.9,8.63Zm127.86-233c-72.42,39.82-118.86,205.39-125.08,228.72l352.84-8.51c-6.36-94,38.72-216.21,46.8-237.24Z" class="a55db3f3-5fa4-447f-a54b-88c775847ec5"></path><path d="M625.1,355.11S556.05,545,504.27,570.87H141.79S288.51,458.67,323,381Z" class="eea072ea-2097-4901-8a1e-ce02f4ff9efb"></path><path d="M504.27,573H141.79a2.13,2.13,0,0,1-1.29-3.83c1.46-1.12,146.68-112.75,180.58-189a2.14,2.14,0,0,1,1.77-1.26L624.91,353a2,2,0,0,1,1.88.83,2.14,2.14,0,0,1,.31,2c-2.83,7.78-69.93,191-121.88,216.94A2.21,2.21,0,0,1,504.27,573ZM148,568.73H503.76c46.77-24.21,108.92-186.48,118.16-211.21L324.46,383C292.9,452.14,173.73,548.46,148,568.73Z" class="a55db3f3-5fa4-447f-a54b-88c775847ec5"></path><path d="M301.1,469.51a2.13,2.13,0,0,1-1.62-3.52c6.92-8.07,30.19-34.14,38.87-30.93,1.57.58,3.44,2.2,3.44,6.62,0,10.43,10.8,19.22,21.24,21.68,6.5,1.54,11.46.28,13.28-3.36,6.71-13.42,115.26-8.69,137-7.6a2.13,2.13,0,0,1,2,2.23,2,2,0,0,1-2.24,2c-62.48-3.13-129.3-2-132.93,5.25-2.76,5.52-9.49,7.62-18.07,5.61-12.06-2.85-24.52-13.29-24.52-25.84,0-1.64-.34-2.5-.66-2.62-4-1.41-20.84,14.18-34.15,29.71A2.13,2.13,0,0,1,301.1,469.51Z" class="a55db3f3-5fa4-447f-a54b-88c775847ec5"></path><path d="M455.33,514.5H307.53a2.14,2.14,0,0,1,0-4.27h147.8a2.14,2.14,0,0,1,0,4.27Z" class="a55db3f3-5fa4-447f-a54b-88c775847ec5"></path><path d="M584.79,897.67H562a2.14,2.14,0,1,1,0-4.27h22.76a2.14,2.14,0,0,1,0,4.27Z" class="a55db3f3-5fa4-447f-a54b-88c775847ec5"></path><path d="M584.79,658.71H562a2.13,2.13,0,1,1,0-4.26h22.76a2.13,2.13,0,1,1,0,4.26Z" class="a55db3f3-5fa4-447f-a54b-88c775847ec5"></path><path d="M584.79,914.74H562a2.14,2.14,0,1,1,0-4.27h22.76a2.14,2.14,0,0,1,0,4.27Z" class="a55db3f3-5fa4-447f-a54b-88c775847ec5"></path><path d="M152.18,288.4s1.31,36.41,23,45.42c0,0-62.38,45.8-85.21,28.83,0,0-41.11-30.54-28.71-56.76C61.23,305.89,123.87,317,152.18,288.4Z" class="eea072ea-2097-4901-8a1e-ce02f4ff9efb"></path><path d="M103.08,368.51c-5.54,0-10.49-1.23-14.41-4.15C86.93,363.07,46.31,332.47,59.3,305a2.09,2.09,0,0,1,2.3-1.18c.61.1,61.87,10.56,89.07-16.89a2.13,2.13,0,0,1,2.29-.48,2.16,2.16,0,0,1,1.36,1.91c0,.35,1.51,35.15,21.65,43.52a2.14,2.14,0,0,1,.44,3.69C174.24,337.13,131.12,368.51,103.08,368.51ZM62.53,308.26c-9.33,24,28.29,52.39,28.68,52.68,18.66,13.86,67.43-18.23,79.79-26.81-15.46-9-19.54-31.54-20.6-41.19C123,316.11,72.54,309.79,62.53,308.26Z" class="a55db3f3-5fa4-447f-a54b-88c775847ec5"></path><path d="M90,328.05c5.45-8.85,5.4,1.8,7.73,4.8s9.2,3.7,12.56,4.48c4.13,1,8.18,1.73,12.32.35,6.33-2.11,9.78-9.3,16.77-10.13,2.7-.32,2.73-4.59,0-4.27-5.46.65-8.27,3.32-12.47,6.65a19.82,19.82,0,0,1-20.69,1.9c-10.26-5.19-2.51-3.36-5.33-8.26-4.29-7.44-10.62-4.1-14.57,2.32-1.44,2.35,2.25,4.49,3.68,2.16Z" class="a55db3f3-5fa4-447f-a54b-88c775847ec5"></path><path d="M567.72,104.71s56.89,5.69,74-5.69c0,0,5.69,74,45.52,79.65,0,0-68.28,11.38-74,17.07C613.23,195.74,567.72,173,567.72,104.71Z" class="eea072ea-2097-4901-8a1e-ce02f4ff9efb"></path><path d="M613.23,197.87a2,2,0,0,1-1-.23c-.47-.23-46.7-24.14-46.7-92.93a2.13,2.13,0,0,1,.7-1.58,2.16,2.16,0,0,1,1.65-.55c.56.06,56.32,5.49,72.56-5.34a2.13,2.13,0,0,1,3.31,1.61c.06.73,6,72.33,43.69,77.71a2.13,2.13,0,0,1,0,4.21c-32.77,5.47-69.42,13.1-72.8,16.47A2.13,2.13,0,0,1,613.23,197.87Zm-43.36-90.82c.93,58.66,36.6,82.29,43.25,86.19,8.74-4.89,45.67-11.8,64.53-15.1-28.88-12.76-36.28-62.25-37.78-75.68C622,110.88,580.37,108,569.87,107.05Z" class="a55db3f3-5fa4-447f-a54b-88c775847ec5"></path><path d="M594.4,134.32c1.62-1.36,22.94-16.5,23.12-5.65.05,3.13-12.66,8.89-15.16,10.31s-8.56,4.6-6.43,8.5c2,3.67,8.2,1,10.87.24,3-.86,5.79-2,8.93-2.37,4.67-.48,4.8-1.12,4.1,3.32-.65,4.06-3,7.58-3.35,11.77a2.11,2.11,0,0,0,1.06,1.84c3.31,1.88,5.21.53,9-.75,5-1.68,17.14-3.91,20.27-8.08-1.65,2.19,2.06,4.32,3.69,2.15l.78-1a2.14,2.14,0,0,0,0-2.16c-1.9-3.63-4.75-2.48-8.13-1.39-5.31,1.71-10.53,3.8-15.78,5.7-3.75,1.35-5.5,3.87-5.47-.68,0-1.86,1.53-4.44,2.09-6.23,4.41-13.87-10.09-7.47-18.27-6.2-6.81,1.06.73-1.88,3.39-3.44a57,57,0,0,0,9-6.14c2.89-2.55,7.31-6.79,5.17-11.21-5.26-10.87-26.84,4.36-31.8,8.49-2.11,1.76.92,4.76,3,3Z" class="a55db3f3-5fa4-447f-a54b-88c775847ec5"></path><path d="M818.1,536s58-12.76,79.54-44.27c0,0,33.77,72.36,67.49,86.15l-74,54.21S836.39,603.92,818.1,536Z" class="eea072ea-2097-4901-8a1e-ce02f4ff9efb"></path><path d="M891.12,634.2a2.15,2.15,0,0,1-1-.24c-.55-.28-55.77-29.36-74.1-97.44a2.15,2.15,0,0,1,.23-1.66,2.18,2.18,0,0,1,1.37-1c.57-.12,57.44-12.94,78.24-43.39a2.13,2.13,0,0,1,3.69.3c.34.72,33.8,71.77,66.36,85.08a2.14,2.14,0,0,1,.46,3.7l-74,54.21A2.08,2.08,0,0,1,891.12,634.2Zm-70.38-96.66c16.87,59.36,62.43,87.55,70.22,92l70-51.28c-29.16-15-56.86-68.51-63.69-82.43C876.49,522.53,831.36,534.93,820.74,537.54Z" class="a55db3f3-5fa4-447f-a54b-88c775847ec5"></path><path d="M863.66,563.16q7.86,19.17,14.15,38.9a2.14,2.14,0,0,0,4.19-.57c.25-3.39-.73-16.28,2.06-18.68-.64.55,3-.22,3.54-.38a11.29,11.29,0,0,0,4.7-3.06c4.32-4.13,5.35-8.37,11.09-11.69,3-1.71,5-2.3,6.53-5.55,1.19-2.46-2.49-4.62-3.69-2.15-2,4-8.09,4.88-11.18,8.11-2.26,2.36-3.28,6.19-5.76,8.27-2.09,1.74-5.52,1-7.36,2.13s-2.25,2.08-2.78,4c-1.57,5.77-1,13.06-1.42,19l4.19-.56q-6.3-19.74-14.15-38.9c-1-2.51-5.15-1.41-4.11,1.13Z" class="a55db3f3-5fa4-447f-a54b-88c775847ec5"></path><path d="M731.92,683.26s-.88-1.61-2.2-4.26c-5.82-11.67-20.24-43.46-6.33-46.94C740.45,627.8,731.92,683.26,731.92,683.26Z" class="eea072ea-2097-4901-8a1e-ce02f4ff9efb"></path><path d="M731.92,685.4a2.14,2.14,0,0,1-1.88-1.12s-.89-1.63-2.23-4.33c-6.18-12.38-15.84-34.66-11.17-44.81a9.1,9.1,0,0,1,6.23-5.15,8,8,0,0,1,7.57,1.76c9.85,9,4.26,47.48,3.59,51.84a2.15,2.15,0,0,1-1.74,1.78A2.31,2.31,0,0,1,731.92,685.4ZM725.19,634a5.65,5.65,0,0,0-1.29.17,4.74,4.74,0,0,0-3.38,2.79c-2.74,6,1.06,20.54,10.18,39.25,1.53-13.68,2.67-36-3.14-41.26A3.36,3.36,0,0,0,725.19,634Z" class="a55db3f3-5fa4-447f-a54b-88c775847ec5"></path><path d="M576.86,606.55s1-1.54,2.68-4c7.42-10.72,28.34-38.66,38.08-28.15C629.58,587.32,576.86,606.55,576.86,606.55Z" class="eea072ea-2097-4901-8a1e-ce02f4ff9efb"></path><path d="M576.86,608.69a2.14,2.14,0,0,1-1.8-3.29s1-1.57,2.72-4c7.88-11.37,22.75-30.57,33.91-31.36a9.1,9.1,0,0,1,7.5,3,7.9,7.9,0,0,1,2.1,7.48c-3.13,13-39.56,26.6-43.7,28.11A2.08,2.08,0,0,1,576.86,608.69Zm35.57-34.46H612c-6.54.47-17.5,10.83-29.5,27.83,12.73-5.25,32.8-15,34.65-22.62a3.65,3.65,0,0,0-1.08-3.58A4.7,4.7,0,0,0,612.43,574.23Z" class="a55db3f3-5fa4-447f-a54b-88c775847ec5"></path></svg>