<svg viewBox="0 0 1024 1024" xmlns="http://www.w3.org/2000/svg" id="b3c8fd10-556e-4abe-95ea-518d5e4dc078"><defs><style>.b95dc42b-86ab-4d1f-8ea4-b269bd02d05e{fill:none;}.fd7372bf-3a38-4bfc-8109-3e132c20655a{fill:#e61f19;opacity:0.2;}.b4472f43-7e5b-423b-b265-3573176f418e{fill:#fff;}.b292db32-810c-42eb-b94c-ed3ec4c47610{fill:#040000;}.b6f5edab-d0c9-4ac0-a8f4-3cf7ed855596{fill:#fffdfd;}</style></defs><title>党建1024px尺寸</title><rect height="1024" width="1024" class="b95dc42b-86ab-4d1f-8ea4-b269bd02d05e"></rect><path d="M910.73,563.73c-18.52-26.81-32.91-50.24-44.07-71-17.49-8.06-28.44,5.18-28.94,5.8a6.4,6.4,0,1,1-10-8c5-6.29,16.39-14.4,31-13.11-78.31-158.94,49.46-144.73-70.53-304C619.27-50.76,286.59,79.76,243,266.27,231.18,317,194.09,349.88,170.87,372.9c-37,36.7-76,62-84.72,129.46-3.42,26.52-5.54,49.51-4.69,71.12a50.93,50.93,0,0,1,8.14,4.42c21,14,34.47.93,34.59.8a6.4,6.4,0,0,1,9.05,9c-4.3,4.31-13.16,9.41-24.67,9.41-7.67,0-16.52-2.27-26-8.56,7.85,70.5,53.4,131.06,199.35,261.23C494.29,1039.23,1086,817.41,910.73,563.73Z" class="fd7372bf-3a38-4bfc-8109-3e132c20655a"></path><path d="M290.85,672.82S265.25,758.16,261,817.89s51.2,12.8,51.2,12.8,4.26-115.2,34.13-140.8S290.85,672.82,290.85,672.82Z" class="b4472f43-7e5b-423b-b265-3573176f418e"></path><path d="M276.27,850.33a16.49,16.49,0,0,1-7.59-1.68c-7.7-3.91-11-14.31-9.82-30.91,4.23-59.28,29.69-144.67,29.95-145.53l.41-1.37,1.42-.14c9.68-1,58.29-5.17,63.63,7.31,1.66,3.88-.49,8.29-6.56,13.5-28.83,24.71-33.35,138.12-33.39,139.26l0,.94-.71.61C312.56,833.17,292.07,850.33,276.27,850.33Zm16.22-175.52C289.21,686,267,763.34,263.12,818c-1.06,14.73,1.47,23.74,7.5,26.81,10.67,5.44,31.44-8.6,39.47-15.19.5-11.92,5.73-116.44,34.84-141.39,4.29-3.68,6.21-6.72,5.42-8.58C347.39,672.77,315.23,672.67,292.49,674.81Z" class="b292db32-810c-42eb-b94c-ed3ec4c47610"></path><path d="M380.45,489.36S325,502.16,295.12,579c-11.26,28.95-18.2,60.77-25.57,80.45a22.12,22.12,0,0,0,14.31,28.91l54.63,16.62a22.13,22.13,0,0,0,27.45-14.18l27.31-81.94Z" class="b292db32-810c-42eb-b94c-ed3ec4c47610"></path><polygon points="265.25 681.36 350.58 672.82 346.32 711.22 290.85 728.29 265.25 728.29 265.25 681.36" class="b4472f43-7e5b-423b-b265-3573176f418e"></polygon><path d="M291.17,730.42H263.12v-51l89.88-9-4.71,42.41Zm-23.78-4.26h23.14l53.82-16.56,3.82-34.39-80.78,8.08Z" class="b292db32-810c-42eb-b94c-ed3ec4c47610"></path><path d="M239.65,692.11v66h25.6v-76.8l-19.2,3.2A7.66,7.66,0,0,0,239.65,692.11Z" class="b4472f43-7e5b-423b-b265-3573176f418e"></path><path d="M267.39,760.29H237.52V692.11a9.76,9.76,0,0,1,8.18-9.66l21.69-3.61ZM241.79,756h21.33V683.88l-16.72,2.78a5.51,5.51,0,0,0-4.61,5.45Z" class="b292db32-810c-42eb-b94c-ed3ec4c47610"></path><polygon points="290.85 726.16 357.41 711.22 367.65 736.11 311.33 741.09 290.85 726.16" class="b4472f43-7e5b-423b-b265-3573176f418e"></polygon><path d="M310.72,743.29l-24.93-18.18,72.91-16.36,12,29.23Zm-14.8-16.08,16,11.68,52.64-4.65-8.46-20.54Z" class="b292db32-810c-42eb-b94c-ed3ec4c47610"></path><polygon points="299.38 736.82 388.99 711.22 393.25 890.42 299.38 924.56 299.38 736.82" class="b292db32-810c-42eb-b94c-ed3ec4c47610"></polygon><path d="M297.25,927.6V735.22l93.8-26.8,4.37,183.49Zm4.27-189.17V921.51l89.56-32.57L386.92,714Z" class="b292db32-810c-42eb-b94c-ed3ec4c47610"></path><rect transform="translate(-5.4 3.04) rotate(-0.34)" height="4.27" width="793.61" y="920.29" x="120.18" class="b292db32-810c-42eb-b94c-ed3ec4c47610"></rect><path d="M581,463a233.52,233.52,0,0,1,85.33,38.5L655.45,645.6v279H506.91" class="b4472f43-7e5b-423b-b265-3573176f418e"></path><path d="M655.45,926.69H506.91a2.14,2.14,0,0,1,0-4.27H653.32V645.6L664.1,502.49A231.75,231.75,0,0,0,580.52,465a2.14,2.14,0,0,1,.93-4.17,236.31,236.31,0,0,1,86.11,38.85,2.16,2.16,0,0,1,.89,1.9L657.58,645.76v278.8A2.13,2.13,0,0,1,655.45,926.69Z" class="b292db32-810c-42eb-b94c-ed3ec4c47610"></path><path d="M506.91,924.56l-173.39-4.27s-13-234.53,25.48-396.73l24.16-42.34c28.71-17.34,58.44-25,108.29-24h30.92A245.21,245.21,0,0,1,581,463" class="b4472f43-7e5b-423b-b265-3573176f418e"></path><path d="M506.91,926.69h-.05l-173.39-4.27a2.13,2.13,0,0,1-2.08-2c-.13-2.35-12.62-236.7,25.53-397.35a2.11,2.11,0,0,1,.22-.56l24.16-42.34a2.3,2.3,0,0,1,.75-.77c30.54-18.43,61.23-25.27,109.44-24.31h30.86a249,249,0,0,1,59.1,5.78,2.14,2.14,0,0,1-.93,4.17,244.57,244.57,0,0,0-58-5.69h-31c-47.11-.94-77.09,5.66-106.72,23.42L361,524.35c-36.07,152.21-26.58,370.82-25.45,393.86L507,922.42a2.14,2.14,0,0,1-.06,4.27Z" class="b292db32-810c-42eb-b94c-ed3ec4c47610"></path><path d="M354.85,485.53s63.84,285,305,349.43l19.28-33.7s-238.93-64.44-285.87-345.6C393.25,455.66,354.85,451.4,354.85,485.53Z" class="b4472f43-7e5b-423b-b265-3573176f418e"></path><path d="M659.84,837.09a2.08,2.08,0,0,1-.55-.07C534,803.54,457.34,709.85,415.07,637.15c-45.74-78.68-62.14-150.44-62.3-151.15a2.5,2.5,0,0,1,0-.47c0-10,3.13-17.84,9.32-23.38,11.89-10.64,30.64-8.69,31.45-8.61a2.14,2.14,0,0,1,1.87,1.77C419.49,599.87,495.54,685.69,555.1,732.22c64.51,50.4,124,66.82,124.57,67a2.13,2.13,0,0,1,1.3,3.12L661.69,836A2.13,2.13,0,0,1,659.84,837.09ZM357,485.29c2.2,9.4,68.9,283.76,301.82,347.18l17.12-29.93c-12.32-3.8-66-22.06-123.46-67-59.92-46.82-136.38-133-161-277.9-4.56-.2-18-.05-26.56,7.67C359.69,470,357,476.7,357,485.29Z" class="b292db32-810c-42eb-b94c-ed3ec4c47610"></path><path d="M610.85,779.49s55.47-42.67,132.27-29.87l25.6,29.87S679.12,813.62,619.39,835c0,0-34.81-3.17-33.58-25.84.37-6.72,4.05-12.84,9.31-17Z" class="b292db32-810c-42eb-b94c-ed3ec4c47610"></path><path d="M585.25,805.09s-22.54,93.4,5.12,140.29c7.82,13.25,22,21.94,37.33,21.34a25.06,25.06,0,0,0,13-3.76s-38.4-68.27-21.33-128C619.39,835,585.25,826.42,585.25,805.09Z" class="b4472f43-7e5b-423b-b265-3573176f418e"></path><path d="M626.2,968.88c-15.12,0-29.45-8.48-37.67-22.42-27.78-47.09-6.28-138-5.35-141.87A2.1,2.1,0,0,1,585.5,803a2.14,2.14,0,0,1,1.89,2.12c0,19.44,32.19,27.72,32.51,27.8a2.11,2.11,0,0,1,1.33,1,2.17,2.17,0,0,1,.21,1.65c-16.62,58.17,20.76,125.7,21.14,126.37a2.14,2.14,0,0,1-.68,2.82,26.93,26.93,0,0,1-14.11,4.12ZM585.39,814.79c-4.74,24.59-15,92.44,6.82,129.5,7.71,13.07,21.28,20.83,35.41,20.3a24.38,24.38,0,0,0,10.25-2.43c-5.86-11.26-35.33-71.81-21.1-125.72C610.44,834.54,591.89,828,585.39,814.79Z" class="b292db32-810c-42eb-b94c-ed3ec4c47610"></path><path d="M640.72,963s51.57-33.37,108.67-54.07a34.92,34.92,0,0,0,21.84-41.72c-6.62-25.26-12.32-60.7-2.51-87.68,0,0-89.6,34.13-149.33,55.47,0,0-17.07,68.26,21.33,123.73" class="b4472f43-7e5b-423b-b265-3573176f418e"></path><path d="M640.72,965.09a2.13,2.13,0,0,1-1.16-3.92l.64-.41a2.11,2.11,0,0,1-1.23-.85c-38.51-55.62-21.83-124.78-21.65-125.47a2.13,2.13,0,0,1,1.35-1.49c59-21.08,148.4-55.11,149.29-55.45a2.13,2.13,0,0,1,2.76,2.72c-9.64,26.51-3.93,61.62,2.57,86.41a36.9,36.9,0,0,1-23.17,44.27c-56.2,20.37-107.73,53.52-108.24,53.85A2.14,2.14,0,0,1,640.72,965.09ZM621.21,836.57c-1.93,9-13.5,70.7,21.26,120.91a2.12,2.12,0,0,1,.34,1.64c12.24-7.59,57.3-34.64,105.86-52.24a32.64,32.64,0,0,0,20.49-39.17c-6.3-24.07-11.87-57.72-3.87-84.63C747,790,672.92,818.08,621.21,836.57Z" class="b292db32-810c-42eb-b94c-ed3ec4c47610"></path><path d="M458.8,416.17s4.66,40.79-18.61,50.2c0,0,46.54,34.52,102.4-3.13,0,0-23.28-12.55-18.62-59.62Z" class="b4472f43-7e5b-423b-b265-3573176f418e"></path><path d="M488.75,482.84c-29.42,0-49.53-14.52-49.83-14.75a2.13,2.13,0,0,1,.47-3.69c21.51-8.71,17.34-47.59,17.29-48a2.14,2.14,0,0,1,1.72-2.34l65.16-12.55a2.14,2.14,0,0,1,2.53,2.3c-4.44,44.88,17.3,57.41,17.52,57.53a2.14,2.14,0,0,1,1.1,1.78,2.17,2.17,0,0,1-.93,1.87C523.79,478.48,504.87,482.84,488.75,482.84Zm-44.26-16.22a87.21,87.21,0,0,0,26.58,10.25c23.13,4.83,45.9.22,67.72-13.69-6.16-5-20-20.41-17.2-56.93L461.1,417.9C461.7,426,462.61,455.87,444.49,466.62Z" class="b292db32-810c-42eb-b94c-ed3ec4c47610"></path><path d="M391.14,292.78h29.65a0,0,0,0,1,0,0V342.5a0,0,0,0,1,0,0H391.14a24.86,24.86,0,0,1-24.86-24.86v0A24.86,24.86,0,0,1,391.14,292.78Z" class="b4472f43-7e5b-423b-b265-3573176f418e"></path><path d="M420.79,344.63H390a25.85,25.85,0,0,1-25.82-25.82v-2.34A25.85,25.85,0,0,1,390,290.65h30.82a2.13,2.13,0,0,1,2.13,2.13V342.5A2.13,2.13,0,0,1,420.79,344.63ZM390,294.92a21.58,21.58,0,0,0-21.55,21.55v2.34A21.59,21.59,0,0,0,390,340.37h28.68V294.92Z" class="b292db32-810c-42eb-b94c-ed3ec4c47610"></path><path transform="translate(1156.85 635.28) rotate(180)" d="M576,292.78h29.65a0,0,0,0,1,0,0V342.5a0,0,0,0,1,0,0H576a24.86,24.86,0,0,1-24.86-24.86v0A24.86,24.86,0,0,1,576,292.78Z" class="b4472f43-7e5b-423b-b265-3573176f418e"></path><path d="M582,344.63H551.17A2.13,2.13,0,0,1,549,342.5V292.78a2.13,2.13,0,0,1,2.13-2.13H582a25.85,25.85,0,0,1,25.82,25.82v2.34A25.85,25.85,0,0,1,582,344.63Zm-28.69-4.26H582a21.59,21.59,0,0,0,21.55-21.56v-2.34A21.58,21.58,0,0,0,582,294.92H553.3Z" class="b292db32-810c-42eb-b94c-ed3ec4c47610"></path><path d="M400.56,210.32H571.4a0,0,0,0,1,0,0v124.4A90.23,90.23,0,0,1,481.16,425h0a80.6,80.6,0,0,1-80.6-80.6v-134a0,0,0,0,1,0,0Z" class="b4472f43-7e5b-423b-b265-3573176f418e"></path><path d="M488.89,427.09h-5.82a84.73,84.73,0,0,1-84.64-84.63V210.32a2.13,2.13,0,0,1,2.13-2.13H571.39a2.13,2.13,0,0,1,2.14,2.13V342.46A84.73,84.73,0,0,1,488.89,427.09Zm-86.2-214.63v130a80.46,80.46,0,0,0,80.38,80.36h5.82a80.45,80.45,0,0,0,80.37-80.36v-130Z" class="b292db32-810c-42eb-b94c-ed3ec4c47610"></path><path d="M592.31,180.44a22.62,22.62,0,0,0,.13-2.34c0-14.83-12.82-26.85-28.62-26.85a30.09,30.09,0,0,0-11.06,2.08c-8.7-8.46-21.74-13.84-36.33-13.84-15,0-28.41,5.72-37.09,14.62a42.42,42.42,0,0,0-28.76-11c-16.93,0-31.46,9.6-37.78,23.3a31.15,31.15,0,0,0-12.24-2.52c-16.15,0-29.52,12.36-32.1,28.55-11.59,5.22-19.53,15.79-19.53,28,0,14.06,10.5,26,25,30a35.35,35.35,0,0,0,62.85,6.64,39.68,39.68,0,0,0,49-5.11c7.51,10.78,19.41,17.78,32.87,17.78a39.34,39.34,0,0,0,27.71-11.65,50.22,50.22,0,0,0,25.27,6.76c26.4,0,47.81-19.89,47.81-44.43C619.39,202.81,608.32,187.62,592.31,180.44Z" class="b292db32-810c-42eb-b94c-ed3ec4c47610"></path><path d="M380.36,314.69s15.4-3.36,20.2,6.45" class="b4472f43-7e5b-423b-b265-3573176f418e"></path><path d="M400.56,323.28a2.14,2.14,0,0,1-1.92-1.2c-4-8.21-17.69-5.33-17.83-5.3a2.13,2.13,0,0,1-.91-4.17c.7-.15,17.1-3.59,22.58,7.6a2.14,2.14,0,0,1-1,2.85A2.09,2.09,0,0,1,400.56,323.28Z" class="b292db32-810c-42eb-b94c-ed3ec4c47610"></path><path d="M591.61,314.69s-15.4-3.36-20.2,6.45" class="b4472f43-7e5b-423b-b265-3573176f418e"></path><path d="M571.41,323.28a2.09,2.09,0,0,1-.94-.22,2.13,2.13,0,0,1-1-2.85c5.48-11.19,21.88-7.75,22.58-7.6a2.13,2.13,0,0,1-.91,4.17c-.14,0-13.83-2.88-17.84,5.3A2.13,2.13,0,0,1,571.41,323.28Z" class="b292db32-810c-42eb-b94c-ed3ec4c47610"></path><path d="M434.87,341.76h-.12l-20.28-1.11a2.12,2.12,0,0,1-2-2.25,2.1,2.1,0,0,1,2.24-2L435,337.49a2.14,2.14,0,0,1-.12,4.27Z" class="b292db32-810c-42eb-b94c-ed3ec4c47610"></path><path d="M535.1,342.87a2.13,2.13,0,0,1-.11-4.26l20.28-1.12a2.09,2.09,0,0,1,2.25,2,2.13,2.13,0,0,1-2,2.24l-20.28,1.12Z" class="b292db32-810c-42eb-b94c-ed3ec4c47610"></path><path d="M446.59,337.49a29.87,29.87,0,1,1,29.86-29.87A29.9,29.9,0,0,1,446.59,337.49Zm0-55.47a25.6,25.6,0,1,0,25.6,25.6A25.63,25.63,0,0,0,446.59,282Z" class="b292db32-810c-42eb-b94c-ed3ec4c47610"></path><path d="M524.38,337.49a29.87,29.87,0,1,1,29.86-29.87A29.9,29.9,0,0,1,524.38,337.49Zm0-55.47a25.6,25.6,0,1,0,25.6,25.6A25.63,25.63,0,0,0,524.38,282Z" class="b292db32-810c-42eb-b94c-ed3ec4c47610"></path><path d="M474.32,311.89a2.13,2.13,0,0,1-1.18-3.91c4.89-3.26,16.41-7.44,24.93.19a2.14,2.14,0,0,1-2.85,3.18c-8.19-7.35-19.6.11-19.72.18A2.12,2.12,0,0,1,474.32,311.89Z" class="b292db32-810c-42eb-b94c-ed3ec4c47610"></path><path d="M593.79,250s-12.8,34.14-8.54,42.67c0,0-4.26-4.27-12.8,0V262.82Z" class="b292db32-810c-42eb-b94c-ed3ec4c47610"></path><path d="M380.45,250s12.8,34.14,8.54,42.67c0,0,4.26-4.27,12.8,0V262.82Z" class="b292db32-810c-42eb-b94c-ed3ec4c47610"></path><path d="M423.72,218.89c-10,0-17.15-2.51-21.21-7.52-6-7.35-2.89-17.07-2.75-17.48a2.12,2.12,0,0,1,2.68-1.36,2.15,2.15,0,0,1,1.38,2.69c0,.08-2.5,8,2,13.49,4.07,5,12.91,6.87,25.58,5.46a2.1,2.1,0,0,1,2.35,1.89,2.13,2.13,0,0,1-1.88,2.35A75,75,0,0,1,423.72,218.89Z" class="b6f5edab-d0c9-4ac0-a8f4-3cf7ed855596"></path><path d="M466.12,222.93c-5.57,0-8.9-.24-9-.25a2.13,2.13,0,0,1-2-2.29,2.15,2.15,0,0,1,2.29-2c.55,0,55.3,3.9,96.87-21a2.13,2.13,0,1,1,2.19,3.66C524,220.55,483.79,222.93,466.12,222.93Z" class="b6f5edab-d0c9-4ac0-a8f4-3cf7ed855596"></path><path d="M493.4,475.38c-26.78,1.07-41.25-4.79-48.95-15.89-1.89,2.85-12.94,1.18-12.8,4.27.68,15.16,29.18,29.51,61.75,28.21s58.4-17.31,57.72-32.48c-.09-2-6.08-2.06-9.9-2.92a5.14,5.14,0,0,0-5.17,1.78C528.55,467.84,516.82,474.44,493.4,475.38Z" class="b292db32-810c-42eb-b94c-ed3ec4c47610"></path><path d="M761.08,404.31c-4.78,0-9.18-3.36-13.08-10-3.08-5.24-6.24-8-9.13-8.08h-.06c-3.64,0-6.74,4.3-7.9,6.16a29.35,29.35,0,0,1-6.45,7.59c-7.46,5.87-15.36,4.84-21.69-2.76-3.14-3.77-6.14-5.68-8.92-5.68h0c-2.75,0-4.93,1.92-6.27,3.53-3,3.57-5.88,5.89-8.88,7.08-4.31,1.71-10.76,2.37-17.06-4.22-2.49-2.6-5-3.81-7.55-3.58-4.92.45-8.62,6-8.66,6a2.13,2.13,0,1,1-3.57-2.33c.19-.3,4.85-7.3,11.81-7.95,3.9-.35,7.62,1.29,11.06,4.88,3.73,3.91,7.9,5,12.39,3.21,2.32-.93,4.67-2.84,7.19-5.86,1.92-2.3,5.13-5,9.54-5h0c4.1,0,8.2,2.43,12.18,7.21,4.93,5.91,10.09,6.61,15.79,2.14a25.09,25.09,0,0,0,5.46-6.51c1.93-3.06,6-8.16,11.51-8.16h.14c4.52.06,8.8,3.49,12.74,10.18,3.08,5.23,6.24,7.88,9.41,7.88h0c4.57,0,8.75-5.74,10-7.93a2.14,2.14,0,0,1,3.73,2.08c-.23.41-5.68,10-13.65,10.12Z" class="b292db32-810c-42eb-b94c-ed3ec4c47610"></path><path d="M761.08,429.63c-4.78,0-9.18-3.36-13.08-10-3.08-5.24-6.24-8-9.13-8.07h-.06c-3.64,0-6.74,4.29-7.9,6.15a29.42,29.42,0,0,1-6.45,7.6c-7.46,5.86-15.36,4.84-21.69-2.76-3.14-3.77-6.14-5.68-8.92-5.68h0c-2.75,0-4.93,1.91-6.27,3.52-3,3.58-5.88,5.89-8.88,7.09-4.31,1.71-10.76,2.36-17.06-4.22-2.49-2.6-5-3.83-7.55-3.58-4.92.44-8.62,6-8.66,6a2.13,2.13,0,0,1-3.57-2.34c.19-.3,4.85-7.3,11.81-7.94,3.9-.36,7.62,1.28,11.06,4.88,3.73,3.9,7.9,5,12.39,3.2,2.32-.92,4.67-2.84,7.19-5.85,1.92-2.31,5.13-5.06,9.54-5.06h0c4.1,0,8.2,2.43,12.18,7.22,4.93,5.91,10.09,6.6,15.79,2.13a25.09,25.09,0,0,0,5.46-6.51c1.93-3.05,6-8.15,11.51-8.15h.14c4.52.07,8.8,3.49,12.74,10.18,3.08,5.24,6.24,7.89,9.41,7.89h0c4.57-.05,8.75-5.74,10-7.93a2.14,2.14,0,0,1,3.73,2.08c-.23.41-5.68,10-13.65,10.11Z" class="b292db32-810c-42eb-b94c-ed3ec4c47610"></path><circle r="18.44" cy="219.18" cx="275.16" class="b4472f43-7e5b-423b-b265-3573176f418e"></circle><path d="M275.16,239.76a20.58,20.58,0,1,1,20.58-20.58A20.6,20.6,0,0,1,275.16,239.76Zm0-36.89a16.31,16.31,0,1,0,16.31,16.31A16.33,16.33,0,0,0,275.16,202.87Z" class="b292db32-810c-42eb-b94c-ed3ec4c47610"></path><path d="M486,358.78a26.12,26.12,0,0,1-17.42-6.27,2.13,2.13,0,0,1,3-3h0c.49.47,12,11.4,31.54-.32a2.13,2.13,0,1,1,2.19,3.66C497.87,357.28,491.35,358.78,486,358.78Z" class="b292db32-810c-42eb-b94c-ed3ec4c47610"></path><path d="M423.12,273.89a2.18,2.18,0,0,1-1.19-.36,2.15,2.15,0,0,1-.59-3c3.27-4.89,12.46-13.15,23.79-9.37a2.13,2.13,0,1,1-1.35,4.05c-11.09-3.7-18.57,7.23-18.89,7.69A2.12,2.12,0,0,1,423.12,273.89Z" class="b292db32-810c-42eb-b94c-ed3ec4c47610"></path><path d="M546.85,273.89a2.13,2.13,0,0,1-2.06-1.61c0-.06-1.66-6.25-6.56-8.49-3.14-1.43-7.1-1-11.76,1.34a2.13,2.13,0,1,1-1.9-3.81c5.88-2.94,11.09-3.41,15.47-1.4,6.76,3.12,8.8,11,8.88,11.32a2.12,2.12,0,0,1-1.55,2.58A1.86,1.86,0,0,1,546.85,273.89Z" class="b292db32-810c-42eb-b94c-ed3ec4c47610"></path><path d="M778.42,634,710,706a16.7,16.7,0,0,1-24.66-.52l-49.84-57C610.22,619.7,596.29,582.28,598.23,544c1.3-25.73,10-48.47,35.12-55.1,62.84-16.6,125.16,89.63,147.13,124.68A16.67,16.67,0,0,1,778.42,634Z" class="b292db32-810c-42eb-b94c-ed3ec4c47610"></path><path d="M585.25,903.22c-17.06,8.54,0,17.07,0,17.07-5.68,12.24,5,11.79,5,11.79,3.27,9,20.71,6.64,20.71,6.64,4.54-.89,8,5.2,17,1.93,38.94-14.25,67.92-37.91,88.3-66.17C755,827.43,788.38,772.2,807.94,737.17a60.73,60.73,0,0,0-3.7-65.06l-48.39-67.43-54.48,53.93,34.49,51.6a17.12,17.12,0,0,1,.63,18L679.12,835C676.28,840.1,667.83,853,662.05,852c-7.16-1.26-29.86-4.26-42.66,8.54,0,0-34.14,3.26-34.14,12.8,0,0-4,16,34.46,5.4a1.19,1.19,0,0,1,1.18,2C614.58,887.54,602.32,899,585.25,903.22Z" class="b4472f43-7e5b-423b-b265-3573176f418e"></path><path d="M622.88,943.76a17.77,17.77,0,0,1-7.55-1.93c-1.75-.77-2.87-1.23-3.91-1-.87.11-17.71,2.23-22.53-6.69a8.6,8.6,0,0,1-6.22-3.4c-1.58-2.36-1.61-5.56-.12-9.53-2.58-1.63-7-5.11-7-9.76,0-3.81,2.94-7.22,8.76-10.12l.44-.16c11.31-2.84,22.42-9.55,32.29-19.49-16.1,4.06-26.66,3.75-31.42-.91a8.63,8.63,0,0,1-2.49-7.66c.45-10.33,28-13.84,35.31-14.59,13.11-12.42,35.07-10.16,44-8.59,3.22.62,10.32-7.81,14.83-16l57.36-106.72a14.93,14.93,0,0,0-.52-15.82l-35.47-53.06,57.5-56.93L806,670.86a63.16,63.16,0,0,1,3.84,67.35C793,768.38,758.6,826.38,717.92,875.84c-22.18,30.77-52.23,53.28-89.22,66.81A16.84,16.84,0,0,1,622.88,943.76ZM612,936.48a12.75,12.75,0,0,1,5.06,1.45c2.71,1.19,5.52,2.43,10.2.71,36.17-13.23,65.54-35.23,87.3-65.41,40.55-49.3,74.76-107.05,91.54-137.1a58.86,58.86,0,0,0-3.58-62.78L755.57,608l-51.45,50.94L737.64,709a19.16,19.16,0,0,1,.7,20.26L681,836c-1.12,2-11.07,19.6-19.32,18.16s-29.18-3.67-40.79,7.94l-.54.54-.76.07c-15.49,1.48-32.2,6-32.2,10.68l-.07.51a4.4,4.4,0,0,0,1.32,3.89c2.24,2.12,9.18,4.81,30.5-1.06a3.33,3.33,0,0,1,3.31,5.48C611.54,894,598.94,901.94,586,905.23c-2.87,1.47-6.2,3.7-6.2,6.21,0,3,4.74,6.1,6.41,6.94l1.85.93-.87,1.88c-1.52,3.28-1.87,5.82-1,7.17,1.09,1.62,3.92,1.6,4,1.58l1.56-.06.53,1.46c2.62,7.16,18.28,5.29,18.43,5.27A6,6,0,0,1,612,936.48Z" class="b292db32-810c-42eb-b94c-ed3ec4c47610"></path><path d="M393.25,455.66s12.8,3.83,17.07,12.36c0,0-4.27,0-12.8,4.27Z" class="b4472f43-7e5b-423b-b265-3573176f418e"></path><path d="M397.52,474.42a2.16,2.16,0,0,1-.89-.19,2.19,2.19,0,0,1-1.18-1.41l-4.26-16.63a2.11,2.11,0,0,1,.58-2.06,2.13,2.13,0,0,1,2.1-.51c.55.17,13.73,4.2,18.36,13.45a2.14,2.14,0,0,1-1.91,3.09s-4,.12-11.85,4A2.1,2.1,0,0,1,397.52,474.42Zm-1.18-15.28,2.6,10.11a45.25,45.25,0,0,1,7.82-2.81C403.91,463,399.48,460.53,396.34,459.14Z" class="b292db32-810c-42eb-b94c-ed3ec4c47610"></path><path d="M585.25,922.42a2.13,2.13,0,0,1-.3-4.24c.29,0,29.32-4.32,41.46-16.46a2.13,2.13,0,0,1,3,3c-13.15,13.15-42.63,17.49-43.88,17.67A1.51,1.51,0,0,1,585.25,922.42Z" class="b292db32-810c-42eb-b94c-ed3ec4c47610"></path><path d="M590.3,934.21a2.14,2.14,0,0,1-.47-4.22c.33-.07,32.9-7.53,45.11-19.74a2.14,2.14,0,0,1,3,3c-13.09,13.08-45.81,20.57-47.19,20.89A2.59,2.59,0,0,1,590.3,934.21Z" class="b292db32-810c-42eb-b94c-ed3ec4c47610"></path><path d="M611,940.86a2.14,2.14,0,0,1-.55-4.2,80.13,80.13,0,0,0,33-17.88,2.13,2.13,0,0,1,3,3,82.91,82.91,0,0,1-34.93,19A2.09,2.09,0,0,1,611,940.86Z" class="b292db32-810c-42eb-b94c-ed3ec4c47610"></path><polygon points="721.78 694.16 777.25 634.42 760.18 596.02 721.78 596.02 696.18 625.89 696.18 651.49 721.78 694.16" class="b292db32-810c-42eb-b94c-ed3ec4c47610"></polygon><path d="M218.86,740.29c15.14-7.78,47-21.22,77.89-15.33,7,1.33,12,8.17,12.18,16.09l3.25,171.39c.17,9.1-6.18,16.67-14.28,17l-65.67,2.95c-8.18.36-15.09-6.75-15.46-15.93l-6.49-160.31C210,749.43,213.38,743.11,218.86,740.29Z" class="b292db32-810c-42eb-b94c-ed3ec4c47610"></path><path d="M231.62,934.57a16,16,0,0,1-10.85-4.33,19.64,19.64,0,0,1-6.13-13.65l-6.5-160.32c-.3-7.65,3.52-14.67,9.74-17.87h0c16.24-8.35,48.14-21.47,79.27-15.53,7.89,1.5,13.74,9.13,13.92,18.14l3.25,171.39c.19,10.18-7.13,18.79-16.32,19.21l-65.68,2.95ZM219.83,742.19c-4.68,2.41-7.66,8-7.42,13.91l6.49,160.32a15.35,15.35,0,0,0,4.76,10.68,11.63,11.63,0,0,0,8.47,3.19l65.68-2.94c6.9-.31,12.39-7,12.24-14.87L306.8,741.09c-.13-7-4.53-12.9-10.45-14-29.88-5.71-60.77,7-76.52,15.13Z" class="b292db32-810c-42eb-b94c-ed3ec4c47610"></path><path d="M701.54,276.7a2.13,2.13,0,0,1-.64-4.16l44.75-14.16a2.13,2.13,0,0,1,1.28,4.06L702.19,276.6A2.1,2.1,0,0,1,701.54,276.7Z" class="b292db32-810c-42eb-b94c-ed3ec4c47610"></path><path d="M731,292a2.12,2.12,0,0,1-2-1.49L714.8,245.76a2.13,2.13,0,0,1,4.07-1.29L733,289.22a2.13,2.13,0,0,1-1.39,2.68A2,2,0,0,1,731,292Z" class="b292db32-810c-42eb-b94c-ed3ec4c47610"></path><path d="M435.92,310.16s12.8-8.54,25.6,0" class="b4472f43-7e5b-423b-b265-3573176f418e"></path><path d="M461.52,312.29a2.12,2.12,0,0,1-1.18-.36c-11.48-7.65-23.12-.08-23.24,0a2.13,2.13,0,1,1-2.36-3.55c.56-.38,14.13-9.22,28,0a2.13,2.13,0,0,1,.59,3A2.11,2.11,0,0,1,461.52,312.29Z" class="b292db32-810c-42eb-b94c-ed3ec4c47610"></path><path d="M534.05,310.16s-12.8-8.54-25.6,0" class="b4472f43-7e5b-423b-b265-3573176f418e"></path><path d="M508.45,312.29a2.13,2.13,0,0,1-1.18-3.91c13.82-9.22,27.4-.38,28,0a2.13,2.13,0,0,1-2.37,3.55c-.47-.31-11.8-7.61-23.23,0A2.18,2.18,0,0,1,508.45,312.29Z" class="b292db32-810c-42eb-b94c-ed3ec4c47610"></path><path d="M717.52,150.16a2.14,2.14,0,0,1-.63-4.18c15.86-4.87,25.83-32.52,25.92-32.8a2.08,2.08,0,0,1,2.11-1.42,2.14,2.14,0,0,1,2,1.59c3,11.4,21.64,11.53,21.83,11.53a2.14,2.14,0,0,1,0,4.27c-.79,0-17.13-.13-23.77-9.87-3.78,8.65-13.08,26.56-26.8,30.78A2,2,0,0,1,717.52,150.16Z" class="b292db32-810c-42eb-b94c-ed3ec4c47610"></path><circle r="21.33" cy="152.29" cx="700.45" class="b4472f43-7e5b-423b-b265-3573176f418e"></circle><path d="M700.45,175.76a23.47,23.47,0,1,1,23.47-23.47A23.5,23.5,0,0,1,700.45,175.76Zm0-42.67a19.2,19.2,0,1,0,19.2,19.2A19.22,19.22,0,0,0,700.45,133.09Z" class="b292db32-810c-42eb-b94c-ed3ec4c47610"></path><path d="M205.06,451.4a2.13,2.13,0,0,1-1.44-3.71c1.14-1.05,28.26-25.61,50.49-23.65a23.69,23.69,0,0,1,17.33,9.68,2.13,2.13,0,0,1-3.39,2.59,19.34,19.34,0,0,0-14.31-8c-20.31-1.77-47,22.3-47.24,22.55A2.16,2.16,0,0,1,205.06,451.4Z" class="b292db32-810c-42eb-b94c-ed3ec4c47610"></path><path d="M254,504.79a2.07,2.07,0,0,1-1-.27,2.12,2.12,0,0,1-.82-2.9c.6-1.09,15-26.58,29.13-21.15a2.13,2.13,0,0,1-1.52,4c-9-3.41-20.27,12.72-23.89,19.23A2.13,2.13,0,0,1,254,504.79Z" class="b292db32-810c-42eb-b94c-ed3ec4c47610"></path><path d="M271.42,398.79a2.09,2.09,0,0,1-1.69-.85c-19.16-25.15-52.21-18.74-52.55-18.68a2.13,2.13,0,0,1-.85-4.18c.36-.07,36-7,56.79,20.28a2.13,2.13,0,0,1-.4,3A2.17,2.17,0,0,1,271.42,398.79Z" class="b292db32-810c-42eb-b94c-ed3ec4c47610"></path></svg>