<svg width="84" height="32" fill="none" xmlns="http://www.w3.org/2000/svg"><path d="M16 32c8.837 0 16-7.163 16-16S24.837 0 16 0 0 7.163 0 16s7.163 16 16 16z" fill="#0098EA"></path><path d="M21.463 8.93H10.536c-2.009 0-3.282 2.167-2.271 3.92l6.743 11.688c.44.763 1.543.763 1.983 0l6.745-11.689c1.01-1.749-.264-3.919-2.272-3.919h-.001zm-6.46 12.102l-1.469-2.842-3.544-6.338a.619.619 0 0 1 .545-.925H15v10.107l.002-.002zm7.003-9.181l-3.542 6.34-1.469 2.841V10.925h4.467c.49 0 .778.52.544.926z" fill="#fff"></path><g><path d="M42.197 24.738h3.488V12.575h4.823V9.262H37.374v3.313h4.823v12.163zM58.89 25c4.403 0 8-3.597 8-8 0-4.403-3.597-8-8-8-4.425 0-8 3.597-8 8 0 4.403 3.575 8 8 8zm0-3.357c-2.529 0-4.513-2.136-4.513-4.643 0-2.507 1.984-4.643 4.513-4.643 2.507 0 4.49 2.136 4.49 4.643 0 2.507-1.983 4.643-4.49 4.643zm23.916 3.095V9.262h-3.488v9.547l-7.52-9.547H68.81v15.476h3.466v-9.57l7.543 9.57h2.986z" fill="currentColor"></path></g></svg>